<svg xmlns:xlink="http://www.w3.org/1999/xlink" version="1.1" class="highcharts-root" style="font-family:&quot;Statis Sans&quot;, sans-serif;font-size:13px;color:#333333;fill:#333333;" xmlns="http://www.w3.org/2000/svg" width="768" height="432" viewBox="0 0 768 432" aria-label="Interactive chart" aria-hidden="false"><desc aria-hidden="true">Created with Highcharts 7.1.2</desc><defs aria-hidden="true"><clipPath id="highcharts-g75y1p5-2931-"><rect x="0" y="0" width="644" height="213" fill="none"></rect></clipPath><clipPath id="highcharts-g75y1p5-5863-"><rect x="40" y="83" width="644" height="213" fill="none"></rect></clipPath></defs><rect fill="white" class="highcharts-background" x="0" y="0" width="768" height="432" rx="0" ry="0" aria-hidden="true"></rect><rect fill="none" class="highcharts-plot-background" x="40" y="83" width="644" height="213" aria-hidden="true"></rect><g transform="translate(40,407)" class="js-destatis-copyright" aria-hidden="true"><g transform="translate(12,0)"><rect x="1" y="1" width="2" height="6" fill="#1D1D1B"></rect><rect x="5" y="3" width="2" height="4" fill="#CD1531"></rect><rect x="9" y="0" width="2" height="7" fill="#FCC200"></rect><rect x="1" y="8" width="10" height="2" fill="#B1B1B1"></rect></g><text x="0" y="11" fill="#333333" font-size="13px" font-family="&quot;Statis Sans&quot;">©</text><text x="27" y="9" fill="#333333" font-size="13px" font-family="&quot;Statis Sans&quot;"><tspan>Statistisches Bundesamt (Destatis), 2020</tspan></text></g><g class="highcharts-pane-group" data-z-index="0" aria-hidden="true"></g><g class="highcharts-grid highcharts-xaxis-grid" data-z-index="1" aria-hidden="true"><path fill="none" data-z-index="1" class="highcharts-grid-line" d="M 40.5 83 L 40.5 296" opacity="1"></path><path fill="none" data-z-index="1" class="highcharts-grid-line" d="M 128.5 83 L 128.5 296" opacity="1"></path><path fill="none" data-z-index="1" class="highcharts-grid-line" d="M 216.5 83 L 216.5 296" opacity="1"></path><path fill="none" data-z-index="1" class="highcharts-grid-line" d="M 305.5 83 L 305.5 296" opacity="1"></path><path fill="none" data-z-index="1" class="highcharts-grid-line" d="M 393.5 83 L 393.5 296" opacity="1"></path><path fill="none" data-z-index="1" class="highcharts-grid-line" d="M 481.5 83 L 481.5 296" opacity="1"></path><path fill="none" data-z-index="1" class="highcharts-grid-line" d="M 569.5 83 L 569.5 296" opacity="1"></path><path fill="none" data-z-index="1" class="highcharts-grid-line" d="M 657.5 83 L 657.5 296" opacity="1"></path></g><g class="highcharts-grid highcharts-yaxis-grid" data-z-index="1" aria-hidden="true"><path fill="none" stroke="#333333" stroke-width="0.1" data-z-index="1" class="highcharts-grid-line" d="M 40 296.05 L 684 296.05" opacity="1"></path><path fill="none" stroke="#333333" stroke-width="0.1" data-z-index="1" class="highcharts-grid-line" d="M 40 269.05 L 684 269.05" opacity="1"></path><path fill="none" stroke="#333333" stroke-width="0.1" data-z-index="1" class="highcharts-grid-line" d="M 40 243.05 L 684 243.05" opacity="1"></path><path fill="none" stroke="#333333" stroke-width="0.1" data-z-index="1" class="highcharts-grid-line" d="M 40 216.05 L 684 216.05" opacity="1"></path><path fill="none" stroke="#333333" stroke-width="0.1" data-z-index="1" class="highcharts-grid-line" d="M 40 190.05 L 684 190.05" opacity="1"></path><path fill="none" stroke="#333333" stroke-width="0.1" data-z-index="1" class="highcharts-grid-line" d="M 40 163.05 L 684 163.05" opacity="1"></path><path fill="none" stroke="#333333" stroke-width="0.1" data-z-index="1" class="highcharts-grid-line" d="M 40 136.05 L 684 136.05" opacity="1"></path><path fill="none" stroke="#333333" stroke-width="0.1" data-z-index="1" class="highcharts-grid-line" d="M 40 110.05 L 684 110.05" opacity="1"></path><path fill="none" stroke="#333333" stroke-width="0.1" data-z-index="1" class="highcharts-grid-line" d="M 40 82.95 L 684 82.95" opacity="1"></path></g><rect fill="none" class="highcharts-plot-border" data-z-index="1" x="40" y="83" width="644" height="213" aria-hidden="true"></rect><g class="highcharts-axis highcharts-xaxis" data-z-index="2" aria-hidden="true"><path fill="none" class="highcharts-tick" stroke="#333333" stroke-width="1" d="M 40.5 296 L 40.5 306" opacity="1"></path><path fill="none" class="highcharts-tick" stroke="#333333" stroke-width="1" d="M 128.5 296 L 128.5 306" opacity="1"></path><path fill="none" class="highcharts-tick" stroke="#333333" stroke-width="1" d="M 216.5 296 L 216.5 306" opacity="1"></path><path fill="none" class="highcharts-tick" stroke="#333333" stroke-width="1" d="M 305.5 296 L 305.5 306" opacity="1"></path><path fill="none" class="highcharts-tick" stroke="#333333" stroke-width="1" d="M 393.5 296 L 393.5 306" opacity="1"></path><path fill="none" class="highcharts-tick" stroke="#333333" stroke-width="1" d="M 481.5 296 L 481.5 306" opacity="1"></path><path fill="none" class="highcharts-tick" stroke="#333333" stroke-width="1" d="M 569.5 296 L 569.5 306" opacity="1"></path><path fill="none" class="highcharts-tick" stroke="#333333" stroke-width="1" d="M 657.5 296 L 657.5 306" opacity="1"></path><path fill="none" class="highcharts-axis-line" stroke="#333333" stroke-width="1" data-z-index="7" d="M 40 296.5 L 684 296.5"></path></g><g class="highcharts-axis highcharts-yaxis" data-z-index="2" aria-hidden="true"><path fill="none" class="highcharts-axis-line" data-z-index="7" d="M 684 83 L 684 296"></path></g><g class="highcharts-series-group" data-z-index="3" aria-hidden="false"><g data-z-index="0.1" class="highcharts-series highcharts-series-0 highcharts-line-series " visibility="hidden" transform="translate(40,83) scale(1 1)" clip-path="url(#highcharts-g75y1p5-2931-)" aria-hidden="false"><path fill="none" d="M 0.88219178082192 192.339 L 2.6465753424658 188.34525 L 4.4109589041096 191.85975 L 6.1753424657534 190.5285 L 7.9397260273973 190.1025 L 9.7041095890411 190.635 L 11.468493150685 193.0845 L 13.232876712329 191.54025000000001 L 14.997260273973 190.209 L 16.761643835616 189.57 L 18.52602739726 190.36875 L 20.290410958904 190.635 L 22.054794520548 191.11425 L 23.819178082192 191.85975 L 25.583561643836 191.96625 L 27.347945205479 186.53475 L 29.112328767123 189.8895 L 30.876712328767 193.617 L 32.641095890411 191.96625 L 34.405479452055 191.8065 L 36.169863013699 192.339 L 37.934246575342 193.404 L 39.698630136986 189.4635 L 41.46301369863 191.274 L 43.227397260274 191.22075 L 44.991780821918 190.79475 L 46.756164383562 192.39225 L 48.520547945205 191.64675 L 50.284931506849 193.03125 L 52.049315068493 188.34525 L 53.813698630137 191.32725 L 55.578082191781 191.5935 L 57.342465753425 191.487 L 59.106849315068 189.41025 L 60.871232876712 190.3155 L 62.635616438356 192.339 L 64.4 189.72975 L 66.164383561644 190.209 L 67.928767123288 190.68825 L 69.693150684932 190.848 L 71.457534246575 190.36875 L 73.221917808219 191.8065 L 74.986301369863 192.71175 L 76.750684931507 191.1675 L 78.515068493151 191.3805 L 80.279452054795 189.51675 L 82.043835616438 189.8895 L 83.808219178082 191.061 L 85.572602739726 190.1025 L 87.33698630137 191.5935 L 89.101369863014 189.72975 L 90.865753424658 192.126 L 92.630136986301 190.422 L 94.394520547945 187.28025 L 96.158904109589 192.6585 L 97.923287671233 192.07274999999998 L 99.687671232877 193.2975 L 101.45205479452 190.90125 L 103.21643835616 192.6585 L 104.98082191781 189.72975 L 106.74520547945 191.487 L 108.5095890411 192.4455 L 110.27397260274 193.2975 L 112.03835616438 193.7235 L 113.80273972603 188.718 L 115.56712328767 193.5105 L 117.33150684932 194.1495 L 119.09589041096 192.978 L 120.8602739726 191.11425 L 122.62465753425 193.5105 L 124.38904109589 193.83 L 126.15342465753 191.11425 L 127.91780821918 191.8065 L 129.68219178082 192.0195 L 131.44657534247 191.64675 L 133.21095890411 192.07274999999998 L 134.97534246575 194.52224999999999 L 136.7397260274 193.45725 L 138.50410958904 191.7 L 140.26849315068 193.0845 L 142.03287671233 191.22075 L 143.79726027397 192.978 L 145.56164383562 193.77675 L 147.32602739726 194.30925 L 149.0904109589 195.69375 L 150.85479452055 195.2145 L 152.61917808219 194.41575 L 154.38356164384 193.191 L 156.14794520548 192.60525 L 157.91232876712 192.07274999999998 L 159.67671232877 192.6585 L 161.44109589041 194.7885 L 163.20547945205 191.1675 L 164.9698630137 193.9365 L 166.73424657534 194.62875 L 168.49863013699 194.469 L 170.26301369863 193.77675 L 172.02739726027 194.3625 L 173.79178082192 193.56375 L 175.55616438356 190.79475 L 177.32054794521 192.8715 L 179.08493150685 193.03125 L 180.84931506849 192.71175 L 182.61369863014 194.7885 L 184.37808219178 192.49875 L 186.14246575342 194.41575 L 187.90684931507 194.20275 L 189.67123287671 193.77675 L 191.43561643836 193.56375 L 193.2 194.7885 L 194.96438356164 192.49875 L 196.72876712329 195.05475 L 198.49315068493 194.469 L 200.25753424658 192.28575 L 202.02191780822 190.90125 L 203.78630136986 193.35075 L 205.55068493151 191.487 L 207.31506849315 190.04925 L 209.07945205479 192.92475 L 210.84383561644 192.126 L 212.60821917808 193.98975000000002 L 214.37260273973 191.96625 L 216.13698630137 192.0195 L 217.90136986301 191.43375 L 219.66575342466 194.3625 L 221.4301369863 193.24425 L 223.19452054795 192.765 L 224.95890410959 192.28575 L 226.72328767123 194.895 L 228.48767123288 191.8065 L 230.25205479452 193.98975000000002 L 232.01643835616 190.635 L 233.78082191781 192.28575 L 235.54520547945 193.7235 L 237.3095890411 192.17925 L 239.07397260274 193.9365 L 240.83835616438 191.8065 L 242.60273972603 192.81825 L 244.36712328767 194.043 L 246.13150684932 193.03125 L 247.89589041096 195.16125 L 249.6602739726 192.978 L 251.42465753425 192.71175 L 253.18904109589 193.404 L 254.95342465753 195.321 L 256.71780821918 193.24425 L 258.48219178082 193.2975 L 260.24657534247 193.35075 L 262.01095890411 191.64675 L 263.77534246575 191.43375 L 265.5397260274 192.552 L 267.30410958904 193.617 L 269.06849315068 193.191 L 270.83287671233 194.20275 L 272.59726027397 194.94825 L 274.36164383562 194.62875 L 276.12602739726 192.765 L 277.8904109589 192.39225 L 279.65479452055 192.81825 L 281.41917808219 192.49875 L 283.18356164384 195.2145 L 284.94794520548 193.03125 L 286.71232876712 193.35075 L 288.47671232877 192.978 L 290.24109589041 194.3625 L 292.00547945205 194.09625 L 293.7698630137 194.41575 L 295.53424657534 194.94825 L 297.29863013699 192.765 L 299.06301369863 191.913 L 300.82739726027 192.4455 L 302.59178082192 192.17925 L 304.35616438356 191.913 L 306.12054794521 192.6585 L 307.88493150685 193.0845 L 309.64931506849 194.1495 L 311.41369863014 194.41575 L 313.17808219178 194.1495 L 314.94246575342 193.03125 L 316.70684931507 192.126 L 318.47123287671 193.83 L 320.23561643836 195.16125 L 322 197.29125 L 323.76438356164 192.126 L 325.52876712329 194.3625 L 327.29315068493 194.256 L 329.05753424658 194.09625 L 330.82191780822 193.617 L 332.58630136986 193.617 L 334.35068493151 194.09625 L 336.11506849315 193.617 L 337.87945205479 193.191 L 339.64383561644 193.24425 L 341.40821917808 194.62875 L 343.17260273973 193.83 L 344.93698630137 194.469 L 346.70136986301 195.8535 L 348.46575342466 195.16125 L 350.2301369863 192.81825 L 351.99452054795 192.92475 L 353.75890410959 192.81825 L 355.52328767123 193.13775 L 357.28767123288 194.3625 L 359.05205479452 195.0015 L 360.81643835616 193.5105 L 362.58082191781 194.469 L 364.34520547945 192.0195 L 366.1095890411 193.191 L 367.87397260274 195.2145 L 369.63835616438 194.3625 L 371.40273972603 193.35075 L 373.16712328767 192.978 L 374.93150684932 192.0195 L 376.69589041096 192.0195 L 378.4602739726 193.617 L 380.22465753425 191.913 L 381.98904109589 194.73525 L 383.75342465753 195.534 L 385.51780821918 194.41575 L 387.28219178082 193.98975000000002 L 389.04657534247 194.41575 L 390.81095890411 195.321 L 392.57534246575 194.895 L 394.3397260274 193.45725 L 396.10410958904 194.1495 L 397.86849315068 193.88325 L 399.63287671233 193.67025 L 401.39726027397 192.8715 L 403.16164383562 194.73525 L 404.92602739726 192.126 L 406.6904109589 193.24425 L 408.45479452055 195.108 L 410.21917808219 195.90675 L 411.98356164384 194.09625 L 413.74794520548 195.80025 L 415.51232876712 192.978 L 417.27671232877 193.35075 L 419.04109589041 193.2975 L 420.80547945205 193.617 L 422.5698630137 194.3625 L 424.33424657534 191.1675 L 426.09863013699 193.9365 L 427.86301369863 193.45725 L 429.62739726027 196.33275 L 431.39178082192 195.321 L 433.15616438356 195.48075 L 434.92054794521 193.77675 L 436.68493150685 192.28575 L 438.44931506849 193.7235 L 440.21369863014 194.73525 L 441.97808219178 194.41575 L 443.74246575342 195.0015 L 445.50684931507 195.16125 L 447.27123287671 192.60525 L 449.03561643836 195.2145 L 450.8 195.16125 L 452.56438356164 195.0015 L 454.32876712329 192.8715 L 456.09315068493 195.05475 L 457.85753424658 195.26775 L 459.62191780822 193.404 L 461.38630136986 193.9365 L 463.15068493151 194.62875 L 464.91506849315 192.71175 L 466.67945205479 193.0845 L 468.44383561644 193.13775 L 470.20821917808 193.98975000000002 L 471.97260273973 194.84175 L 473.73698630137 194.043 L 475.50136986301 194.20275 L 477.26575342466 194.41575 L 479.0301369863 193.0845 L 480.79452054795 194.73525 L 482.55890410959 194.469 L 484.32328767123 191.96625 L 486.08767123288 195.108 L 487.85205479452 193.404 L 489.61643835616 193.5105 L 491.38082191781 191.061 L 493.14520547945 193.98975000000002 L 494.9095890411 194.7885 L 496.67397260274 192.552 L 498.43835616438 192.07274999999998 L 500.20273972603 195.37425 L 501.96712328767 195.2145 L 503.73150684932 193.24425 L 505.49589041096 194.41575 L 507.2602739726 193.03125 L 509.02465753425 194.84175 L 510.78904109589 192.81825 L 512.55342465753 194.09625 L 514.31780821918 192.0195 L 516.08219178082 192.81825 L 517.84657534247 193.67025 L 519.61095890411 192.28575 L 521.37534246575 192.17925 L 523.1397260274 194.469 L 524.90410958904 192.92475 L 526.66849315068 193.13775 L 528.43287671233 193.2975 L 530.19726027397 194.469 L 531.96164383562 194.3625 L 533.72602739726 194.3625 L 535.4904109589 194.895 L 537.25479452055 194.469 L 539.01917808219 193.2975 L 540.78356164384 191.64675 L 542.54794520548 194.1495 L 544.31232876712 194.52224999999999 L 546.07671232877 191.54025000000001 L 547.84109589041 194.73525 L 549.60547945205 195.37425 L 551.3698630137 192.92475 L 553.13424657534 193.404 L 554.89863013699 194.68200000000002 L 556.66301369863 192.552 L 558.42739726027 192.0195 L 560.19178082192 193.77675 L 561.95616438356 192.07274999999998 L 563.72054794521 192.17925 L 565.48493150685 192.0195 L 567.24931506849 192.552 L 569.01369863014 194.469 L 570.77808219178 192.339 L 572.54246575342 193.617 L 574.30684931507 192.07274999999998 L 576.07123287671 190.3155 L 577.83561643836 194.043 L 579.6 194.94825 L 581.36438356164 194.94825 L 583.12876712329 193.98975000000002 L 584.89315068493 191.64675 L 586.65753424658 192.6585 L 588.42191780822 192.978 L 590.18630136986 193.83 L 591.95068493151 192.49875 L 593.71506849315 193.03125 L 595.47945205479 193.35075 L 597.24383561644 192.4455 L 599.00821917808 194.469 L 600.77260273973 192.4455 L 602.53698630137 192.126 L 604.30136986301 194.73525 L 606.06575342466 192.17925 L 607.8301369863 192.339 L 609.59452054795 191.85975 L 611.35890410959 193.0845 L 613.12328767123 192.07274999999998 L 614.88767123288 193.404 L 616.65205479452 192.81825 L 618.41643835616 195.6405 L 620.18082191781 193.617 L 621.94520547945 193.191 L 623.7095890411 191.54025000000001 L 625.47397260274 191.75325 L 627.23835616438 192.23250000000002 L 629.00273972603 193.13775 L 630.76712328767 194.84175 L 632.53150684932 193.83 L 634.29589041096 195.16125 L 636.0602739726 191.061 L 637.82465753425 192.49875 L 639.58904109589 194.1495 L 641.35342465753 191.32725 L 643.11780821918 192.126" class="highcharts-graph" data-z-index="1" stroke="#c3c3c3" stroke-width="2" stroke-linejoin="round" stroke-linecap="round" aria-hidden="false" role="region" tabindex="-1" aria-label="2017 0-64, line 1 of 9 with 365 data points."></path></g><g data-z-index="0.1" class="highcharts-markers highcharts-series-0 highcharts-line-series " visibility="hidden" transform="translate(40,83) scale(1 1)" clip-path="none" aria-hidden="true"></g><g data-z-index="0.1" class="highcharts-series highcharts-series-1 highcharts-line-series " transform="translate(40,83) scale(1 1)" clip-path="url(#highcharts-g75y1p5-2931-)" aria-hidden="false"><path fill="none" d="M 0.88219178082192 192.552 L 2.6465753424658 191.913 L 4.4109589041096 191.85975 L 6.1753424657534 190.422 L 7.9397260273973 192.39225 L 9.7041095890411 191.1675 L 11.468493150685 192.6585 L 13.232876712329 190.90125 L 14.997260273973 194.5755 L 16.761643835616 190.7415 L 18.52602739726 190.58175 L 20.290410958904 192.28575 L 22.054794520548 192.0195 L 23.819178082192 192.17925 L 25.583561643836 191.8065 L 27.347945205479 190.47525 L 29.112328767123 191.75325 L 30.876712328767 191.32725 L 32.641095890411 190.26225 L 34.405479452055 192.6585 L 36.169863013699 192.978 L 37.934246575342 190.7415 L 39.698630136986 190.26225 L 41.46301369863 191.1675 L 43.227397260274 192.81825 L 44.991780821918 191.11425 L 46.756164383562 192.17925 L 48.520547945205 195.6405 L 50.284931506849 190.422 L 52.049315068493 190.36875 L 53.813698630137 191.487 L 55.578082191781 191.75325 L 57.342465753425 191.913 L 59.106849315068 192.17925 L 60.871232876712 194.7885 L 62.635616438356 191.22075 L 64.4 193.67025 L 66.164383561644 190.04925 L 67.928767123288 191.32725 L 69.693150684932 193.7235 L 71.457534246575 192.28575 L 73.221917808219 193.98975000000002 L 74.986301369863 189.8895 L 76.750684931507 189.83625 L 78.515068493151 189.2505 L 80.279452054795 190.47525 L 82.043835616438 192.0195 L 83.808219178082 191.7 L 85.572602739726 191.5935 L 87.33698630137 187.91925 L 89.101369863014 189.30375 L 90.865753424658 189.72975 L 92.630136986301 188.66475 L 94.394520547945 190.635 L 96.158904109589 188.87775 L 97.923287671233 190.26225 L 99.687671232877 188.079 L 101.45205479452 188.02575000000002 L 103.21643835616 188.8245 L 104.98082191781 186.2685 L 106.74520547945 186.53475 L 108.5095890411 187.59975 L 110.27397260274 188.13225 L 112.03835616438 184.08525 L 113.80273972603 185.78925 L 115.56712328767 186.00225 L 117.33150684932 188.718 L 119.09589041096 187.33350000000002 L 120.8602739726 187.70625 L 122.62465753425 188.1855 L 124.38904109589 187.44 L 126.15342465753 189.0375 L 127.91780821918 188.34525 L 129.68219178082 186.85425 L 131.44657534247 190.58175 L 133.21095890411 189.83625 L 134.97534246575 190.848 L 136.7397260274 189.83625 L 138.50410958904 190.1025 L 140.26849315068 187.653 L 142.03287671233 191.274 L 143.79726027397 190.7415 L 145.56164383562 188.87775 L 147.32602739726 191.487 L 149.0904109589 191.96625 L 150.85479452055 191.54025000000001 L 152.61917808219 188.931 L 154.38356164384 192.71175 L 156.14794520548 193.45725 L 157.91232876712 191.274 L 159.67671232877 192.6585 L 161.44109589041 191.061 L 163.20547945205 189.72975 L 164.9698630137 190.5285 L 166.73424657534 190.5285 L 168.49863013699 191.64675 L 170.26301369863 190.15575 L 172.02739726027 192.339 L 173.79178082192 191.96625 L 175.55616438356 192.339 L 177.32054794521 190.26225 L 179.08493150685 191.75325 L 180.84931506849 192.339 L 182.61369863014 194.68200000000002 L 184.37808219178 193.13775 L 186.14246575342 193.5105 L 187.90684931507 192.39225 L 189.67123287671 191.487 L 191.43561643836 192.126 L 193.2 190.5285 L 194.96438356164 192.4455 L 196.72876712329 193.98975000000002 L 198.49315068493 192.28575 L 200.25753424658 194.3625 L 202.02191780822 191.43375 L 203.78630136986 193.404 L 205.55068493151 192.6585 L 207.31506849315 193.35075 L 209.07945205479 194.94825 L 210.84383561644 193.191 L 212.60821917808 192.71175 L 214.37260273973 193.7235 L 216.13698630137 192.92475 L 217.90136986301 193.67025 L 219.66575342466 191.32725 L 221.4301369863 195.90675 L 223.19452054795 190.90125 L 224.95890410959 193.35075 L 226.72328767123 192.49875 L 228.48767123288 193.98975000000002 L 230.25205479452 192.71175 L 232.01643835616 194.5755 L 233.78082191781 194.7885 L 235.54520547945 192.552 L 237.3095890411 192.6585 L 239.07397260274 192.765 L 240.83835616438 193.88325 L 242.60273972603 197.50425 L 244.36712328767 194.09625 L 246.13150684932 195.26775 L 247.89589041096 196.173 L 249.6602739726 193.0845 L 251.42465753425 192.49875 L 253.18904109589 193.67025 L 254.95342465753 192.6585 L 256.71780821918 192.39225 L 258.48219178082 193.03125 L 260.24657534247 191.75325 L 262.01095890411 192.92475 L 263.77534246575 192.0195 L 265.5397260274 194.41575 L 267.30410958904 194.68200000000002 L 269.06849315068 194.043 L 270.83287671233 194.7885 L 272.59726027397 192.0195 L 274.36164383562 193.67025 L 276.12602739726 192.81825 L 277.8904109589 192.71175 L 279.65479452055 192.552 L 281.41917808219 193.88325 L 283.18356164384 194.3625 L 284.94794520548 193.9365 L 286.71232876712 193.0845 L 288.47671232877 195.48075 L 290.24109589041 194.043 L 292.00547945205 192.8715 L 293.7698630137 194.3625 L 295.53424657534 194.469 L 297.29863013699 193.0845 L 299.06301369863 192.81825 L 300.82739726027 192.17925 L 302.59178082192 191.32725 L 304.35616438356 194.30925 L 306.12054794521 195.48075 L 307.88493150685 196.22625 L 309.64931506849 190.90125 L 311.41369863014 194.09625 L 313.17808219178 194.62875 L 314.94246575342 192.4455 L 316.70684931507 192.39225 L 318.47123287671 193.7235 L 320.23561643836 193.2975 L 322 193.35075 L 323.76438356164 192.978 L 325.52876712329 193.7235 L 327.29315068493 191.75325 L 329.05753424658 194.043 L 330.82191780822 194.30925 L 332.58630136986 195.05475 L 334.35068493151 193.2975 L 336.11506849315 192.71175 L 337.87945205479 194.30925 L 339.64383561644 191.274 L 341.40821917808 194.20275 L 343.17260273973 195.37425 L 344.93698630137 195.6405 L 346.70136986301 192.60525 L 348.46575342466 191.061 L 350.2301369863 195.37425 L 351.99452054795 193.56375 L 353.75890410959 193.9365 L 355.52328767123 195.26775 L 357.28767123288 193.9365 L 359.05205479452 190.422 L 360.81643835616 193.77675 L 362.58082191781 193.56375 L 364.34520547945 193.24425 L 366.1095890411 190.68825 L 367.87397260274 191.75325 L 369.63835616438 193.83 L 371.40273972603 189.8895 L 373.16712328767 191.75325 L 374.93150684932 189.09075 L 376.69589041096 191.913 L 378.4602739726 189.996 L 380.22465753425 191.85975 L 381.98904109589 191.913 L 383.75342465753 193.03125 L 385.51780821918 192.39225 L 387.28219178082 188.77125 L 389.04657534247 191.64675 L 390.81095890411 192.4455 L 392.57534246575 195.4275 L 394.3397260274 194.94825 L 396.10410958904 191.913 L 397.86849315068 194.256 L 399.63287671233 194.3625 L 401.39726027397 194.895 L 403.16164383562 191.75325 L 404.92602739726 194.20275 L 406.6904109589 194.7885 L 408.45479452055 192.71175 L 410.21917808219 192.81825 L 411.98356164384 193.88325 L 413.74794520548 191.274 L 415.51232876712 193.404 L 417.27671232877 195.2145 L 419.04109589041 195.80025 L 420.80547945205 193.98975000000002 L 422.5698630137 192.92475 L 424.33424657534 195.321 L 426.09863013699 193.5105 L 427.86301369863 193.9365 L 429.62739726027 194.73525 L 431.39178082192 196.4925 L 433.15616438356 194.469 L 434.92054794521 192.71175 L 436.68493150685 193.67025 L 438.44931506849 193.13775 L 440.21369863014 193.45725 L 441.97808219178 195.48075 L 443.74246575342 196.599 L 445.50684931507 194.1495 L 447.27123287671 192.8715 L 449.03561643836 193.56375 L 450.8 193.24425 L 452.56438356164 194.41575 L 454.32876712329 195.80025 L 456.09315068493 195.05475 L 457.85753424658 191.3805 L 459.62191780822 192.71175 L 461.38630136986 193.404 L 463.15068493151 193.2975 L 464.91506849315 193.45725 L 466.67945205479 195.90675 L 468.44383561644 193.7235 L 470.20821917808 194.52224999999999 L 471.97260273973 194.09625 L 473.73698630137 193.7235 L 475.50136986301 193.2975 L 477.26575342466 195.37425 L 479.0301369863 194.52224999999999 L 480.79452054795 196.22625 L 482.55890410959 192.39225 L 484.32328767123 194.09625 L 486.08767123288 194.5755 L 487.85205479452 193.03125 L 489.61643835616 192.39225 L 491.38082191781 192.6585 L 493.14520547945 194.30925 L 494.9095890411 193.7235 L 496.67397260274 194.895 L 498.43835616438 191.96625 L 500.20273972603 191.22075 L 501.96712328767 194.41575 L 503.73150684932 194.7885 L 505.49589041096 194.5755 L 507.2602739726 191.32725 L 509.02465753425 192.6585 L 510.78904109589 191.913 L 512.55342465753 193.9365 L 514.31780821918 195.90675 L 516.08219178082 195.37425 L 517.84657534247 196.43925000000002 L 519.61095890411 195.0015 L 521.37534246575 194.043 L 523.1397260274 192.978 L 524.90410958904 193.45725 L 526.66849315068 192.17925 L 528.43287671233 196.97175 L 530.19726027397 193.35075 L 531.96164383562 192.339 L 533.72602739726 193.13775 L 535.4904109589 193.404 L 537.25479452055 194.62875 L 539.01917808219 193.7235 L 540.78356164384 193.617 L 542.54794520548 196.11975 L 544.31232876712 192.765 L 546.07671232877 192.60525 L 547.84109589041 192.6585 L 549.60547945205 192.339 L 551.3698630137 193.13775 L 553.13424657534 194.09625 L 554.89863013699 194.043 L 556.66301369863 192.39225 L 558.42739726027 193.35075 L 560.19178082192 193.77675 L 561.95616438356 193.5105 L 563.72054794521 194.3625 L 565.48493150685 194.52224999999999 L 567.24931506849 194.84175 L 569.01369863014 192.4455 L 570.77808219178 192.60525 L 572.54246575342 193.67025 L 574.30684931507 191.22075 L 576.07123287671 193.5105 L 577.83561643836 194.1495 L 579.6 193.83 L 581.36438356164 193.03125 L 583.12876712329 193.67025 L 584.89315068493 191.7 L 586.65753424658 193.35075 L 588.42191780822 190.635 L 590.18630136986 193.13775 L 591.95068493151 194.73525 L 593.71506849315 191.7 L 595.47945205479 192.0195 L 597.24383561644 193.83 L 599.00821917808 194.52224999999999 L 600.77260273973 191.22075 L 602.53698630137 194.469 L 604.30136986301 195.26775 L 606.06575342466 192.126 L 607.8301369863 193.191 L 609.59452054795 194.1495 L 611.35890410959 193.98975000000002 L 613.12328767123 193.5105 L 614.88767123288 193.98975000000002 L 616.65205479452 193.7235 L 618.41643835616 194.20275 L 620.18082191781 194.256 L 621.94520547945 189.57 L 623.7095890411 190.635 L 625.47397260274 191.11425 L 627.23835616438 192.92475 L 629.00273972603 194.62875 L 630.76712328767 193.98975000000002 L 632.53150684932 195.80025 L 634.29589041096 194.3625 L 636.0602739726 193.13775 L 637.82465753425 192.39225 L 639.58904109589 193.98975000000002 L 641.35342465753 193.13775 L 643.11780821918 192.978" class="highcharts-graph" data-z-index="1" stroke="#2c74b5" stroke-width="2" stroke-linejoin="round" stroke-linecap="round" aria-hidden="false" role="region" tabindex="-1" aria-label="2018 0-64, line 2 of 9 with 365 data points."></path></g><g data-z-index="0.1" class="highcharts-markers highcharts-series-1 highcharts-line-series " transform="translate(40,83) scale(1 1)" clip-path="none" aria-hidden="true"></g><g data-z-index="0.1" class="highcharts-series highcharts-series-2 highcharts-line-series " visibility="hidden" transform="translate(40,83) scale(1 1)" clip-path="url(#highcharts-g75y1p5-2931-)" aria-hidden="false"><path fill="none" d="M 0.88219178082192 193.98975000000002 L 2.6465753424658 191.5935 L 4.4109589041096 191.7 L 6.1753424657534 191.22075 L 7.9397260273973 192.8715 L 9.7041095890411 194.09625 L 11.468493150685 189.51675 L 13.232876712329 188.505 L 14.997260273973 192.126 L 16.761643835616 191.487 L 18.52602739726 191.43375 L 20.290410958904 192.6585 L 22.054794520548 193.77675 L 23.819178082192 190.58175 L 25.583561643836 192.0195 L 27.347945205479 191.75325 L 29.112328767123 190.90125 L 30.876712328767 191.487 L 32.641095890411 192.552 L 34.405479452055 193.67025 L 36.169863013699 191.1675 L 37.934246575342 191.5935 L 39.698630136986 189.30375 L 41.46301369863 191.75325 L 43.227397260274 191.274 L 44.991780821918 192.17925 L 46.756164383562 194.73525 L 48.520547945205 189.78300000000002 L 50.284931506849 191.64675 L 52.049315068493 191.75325 L 53.813698630137 190.209 L 55.578082191781 189.83625 L 57.342465753425 191.75325 L 59.106849315068 192.765 L 60.871232876712 188.87775 L 62.635616438356 189.30375 L 64.4 189.72975 L 66.164383561644 190.635 L 67.928767123288 189.78300000000002 L 69.693150684932 192.07274999999998 L 71.457534246575 193.45725 L 73.221917808219 189.94275 L 74.986301369863 189.6765 L 76.750684931507 192.552 L 78.515068493151 190.15575 L 80.279452054795 190.47525 L 82.043835616438 192.81825 L 83.808219178082 191.7 L 85.572602739726 188.87775 L 87.33698630137 191.487 L 89.101369863014 190.635 L 90.865753424658 192.17925 L 92.630136986301 190.36875 L 94.394520547945 193.03125 L 96.158904109589 192.978 L 97.923287671233 189.83625 L 99.687671232877 188.8245 L 101.45205479452 190.1025 L 103.21643835616 191.96625 L 104.98082191781 189.30375 L 106.74520547945 190.26225 L 108.5095890411 192.0195 L 110.27397260274 190.90125 L 112.03835616438 188.77125 L 113.80273972603 190.3155 L 115.56712328767 189.41025 L 117.33150684932 189.8895 L 119.09589041096 192.8715 L 120.8602739726 191.11425 L 122.62465753425 190.7415 L 124.38904109589 192.765 L 126.15342465753 191.1675 L 127.91780821918 190.47525 L 129.68219178082 191.00775 L 131.44657534247 193.03125 L 133.21095890411 192.339 L 134.97534246575 190.58175 L 136.7397260274 191.913 L 138.50410958904 191.85975 L 140.26849315068 189.09075 L 142.03287671233 192.765 L 143.79726027397 193.03125 L 145.56164383562 194.7885 L 147.32602739726 189.62325 L 149.0904109589 191.85975 L 150.85479452055 194.5755 L 152.61917808219 193.67025 L 154.38356164384 190.5285 L 156.14794520548 192.978 L 157.91232876712 194.7885 L 159.67671232877 192.81825 L 161.44109589041 191.487 L 163.20547945205 188.505 L 164.9698630137 193.404 L 166.73424657534 192.39225 L 168.49863013699 194.043 L 170.26301369863 194.1495 L 172.02739726027 191.75325 L 173.79178082192 192.339 L 175.55616438356 192.8715 L 177.32054794521 191.5935 L 179.08493150685 195.321 L 180.84931506849 192.28575 L 182.61369863014 195.747 L 184.37808219178 191.64675 L 186.14246575342 191.1675 L 187.90684931507 193.2975 L 189.67123287671 192.39225 L 191.43561643836 195.37425 L 193.2 193.45725 L 194.96438356164 193.98975000000002 L 196.72876712329 196.27949999999998 L 198.49315068493 188.77125 L 200.25753424658 191.75325 L 202.02191780822 191.3805 L 203.78630136986 193.56375 L 205.55068493151 194.68200000000002 L 207.31506849315 194.7885 L 209.07945205479 194.52224999999999 L 210.84383561644 190.7415 L 212.60821917808 195.37425 L 214.37260273973 192.28575 L 216.13698630137 192.17925 L 217.90136986301 193.24425 L 219.66575342466 196.386 L 221.4301369863 193.35075 L 223.19452054795 192.552 L 224.95890410959 193.45725 L 226.72328767123 192.6585 L 228.48767123288 193.191 L 230.25205479452 195.16125 L 232.01643835616 196.4925 L 233.78082191781 193.56375 L 235.54520547945 192.49875 L 237.3095890411 191.8065 L 239.07397260274 193.56375 L 240.83835616438 193.9365 L 242.60273972603 193.191 L 244.36712328767 194.30925 L 246.13150684932 190.36875 L 247.89589041096 192.17925 L 249.6602739726 193.2975 L 251.42465753425 192.92475 L 253.18904109589 192.8715 L 254.95342465753 196.4925 L 256.71780821918 195.108 L 258.48219178082 192.0195 L 260.24657534247 195.747 L 262.01095890411 192.4455 L 263.77534246575 195.48075 L 265.5397260274 192.92475 L 267.30410958904 194.09625 L 269.06849315068 193.617 L 270.83287671233 190.90125 L 272.59726027397 191.11425 L 274.36164383562 191.64675 L 276.12602739726 193.0845 L 277.8904109589 193.35075 L 279.65479452055 193.88325 L 281.41917808219 194.52224999999999 L 283.18356164384 194.41575 L 284.94794520548 192.28575 L 286.71232876712 192.4455 L 288.47671232877 195.108 L 290.24109589041 191.487 L 292.00547945205 193.77675 L 293.7698630137 194.41575 L 295.53424657534 192.49875 L 297.29863013699 190.90125 L 299.06301369863 192.4455 L 300.82739726027 193.56375 L 302.59178082192 193.03125 L 304.35616438356 195.69375 L 306.12054794521 195.0015 L 307.88493150685 191.32725 L 309.64931506849 189.0375 L 311.41369863014 191.75325 L 313.17808219178 191.7 L 314.94246575342 193.191 L 316.70684931507 193.56375 L 318.47123287671 193.404 L 320.23561643836 190.635 L 322 191.32725 L 323.76438356164 196.599 L 325.52876712329 192.23250000000002 L 327.29315068493 191.913 L 329.05753424658 193.77675 L 330.82191780822 196.01325 L 332.58630136986 195.0015 L 334.35068493151 192.765 L 336.11506849315 194.30925 L 337.87945205479 194.7885 L 339.64383561644 193.98975000000002 L 341.40821917808 195.58725 L 343.17260273973 195.534 L 344.93698630137 193.56375 L 346.70136986301 193.03125 L 348.46575342466 192.978 L 350.2301369863 193.24425 L 351.99452054795 191.64675 L 353.75890410959 192.8715 L 355.52328767123 194.94825 L 357.28767123288 194.20275 L 359.05205479452 192.92475 L 360.81643835616 191.43375 L 362.58082191781 190.68825 L 364.34520547945 188.87775 L 366.1095890411 191.85975 L 367.87397260274 194.09625 L 369.63835616438 192.6585 L 371.40273972603 191.54025000000001 L 373.16712328767 194.52224999999999 L 374.93150684932 192.8715 L 376.69589041096 192.765 L 378.4602739726 194.62875 L 380.22465753425 194.30925 L 381.98904109589 193.77675 L 383.75342465753 193.03125 L 385.51780821918 193.2975 L 387.28219178082 194.52224999999999 L 389.04657534247 192.17925 L 390.81095890411 195.26775 L 392.57534246575 196.86525 L 394.3397260274 194.73525 L 396.10410958904 192.765 L 397.86849315068 192.8715 L 399.63287671233 194.94825 L 401.39726027397 194.09625 L 403.16164383562 195.747 L 404.92602739726 196.43925000000002 L 406.6904109589 193.56375 L 408.45479452055 192.0195 L 410.21917808219 196.7055 L 411.98356164384 194.62875 L 413.74794520548 193.35075 L 415.51232876712 194.256 L 417.27671232877 193.35075 L 419.04109589041 191.11425 L 420.80547945205 192.28575 L 422.5698630137 192.126 L 424.33424657534 191.75325 L 426.09863013699 194.41575 L 427.86301369863 194.94825 L 429.62739726027 195.0015 L 431.39178082192 191.8065 L 433.15616438356 194.1495 L 434.92054794521 191.22075 L 436.68493150685 193.7235 L 438.44931506849 194.41575 L 440.21369863014 197.451 L 441.97808219178 196.33275 L 443.74246575342 192.6585 L 445.50684931507 195.80025 L 447.27123287671 194.09625 L 449.03561643836 192.71175 L 450.8 192.978 L 452.56438356164 194.3625 L 454.32876712329 195.90675 L 456.09315068493 193.45725 L 457.85753424658 192.978 L 459.62191780822 193.191 L 461.38630136986 194.043 L 463.15068493151 192.28575 L 464.91506849315 194.30925 L 466.67945205479 194.52224999999999 L 468.44383561644 190.79475 L 470.20821917808 192.8715 L 471.97260273973 192.81825 L 473.73698630137 193.83 L 475.50136986301 192.339 L 477.26575342466 195.90675 L 479.0301369863 193.98975000000002 L 480.79452054795 193.404 L 482.55890410959 193.03125 L 484.32328767123 194.469 L 486.08767123288 195.26775 L 487.85205479452 193.617 L 489.61643835616 193.9365 L 491.38082191781 195.0015 L 493.14520547945 193.2975 L 494.9095890411 192.978 L 496.67397260274 191.85975 L 498.43835616438 193.24425 L 500.20273972603 193.191 L 501.96712328767 194.1495 L 503.73150684932 192.552 L 505.49589041096 190.90125 L 507.2602739726 192.6585 L 509.02465753425 192.552 L 510.78904109589 194.09625 L 512.55342465753 192.07274999999998 L 514.31780821918 193.98975000000002 L 516.08219178082 196.9185 L 517.84657534247 192.4455 L 519.61095890411 192.978 L 521.37534246575 192.6585 L 523.1397260274 192.71175 L 524.90410958904 193.56375 L 526.66849315068 194.5755 L 528.43287671233 197.025 L 530.19726027397 192.71175 L 531.96164383562 193.24425 L 533.72602739726 193.9365 L 535.4904109589 194.52224999999999 L 537.25479452055 192.39225 L 539.01917808219 193.13775 L 540.78356164384 194.41575 L 542.54794520548 189.30375 L 544.31232876712 192.49875 L 546.07671232877 192.765 L 547.84109589041 192.60525 L 549.60547945205 192.81825 L 551.3698630137 194.895 L 553.13424657534 193.45725 L 554.89863013699 189.996 L 556.66301369863 193.5105 L 558.42739726027 192.17925 L 560.19178082192 189.996 L 561.95616438356 194.5755 L 563.72054794521 194.62875 L 565.48493150685 192.81825 L 567.24931506849 192.23250000000002 L 569.01369863014 192.552 L 570.77808219178 192.07274999999998 L 572.54246575342 192.6585 L 574.30684931507 193.0845 L 576.07123287671 194.5755 L 577.83561643836 194.469 L 579.6 191.913 L 581.36438356164 191.5935 L 583.12876712329 192.49875 L 584.89315068493 194.09625 L 586.65753424658 192.765 L 588.42191780822 193.9365 L 590.18630136986 193.35075 L 591.95068493151 189.57 L 593.71506849315 190.635 L 595.47945205479 190.26225 L 597.24383561644 191.75325 L 599.00821917808 191.487 L 600.77260273973 192.81825 L 602.53698630137 194.62875 L 604.30136986301 191.487 L 606.06575342466 192.28575 L 607.8301369863 191.5935 L 609.59452054795 191.54025000000001 L 611.35890410959 193.35075 L 613.12328767123 193.13775 L 614.88767123288 195.534 L 616.65205479452 192.60525 L 618.41643835616 190.04925 L 620.18082191781 193.2975 L 621.94520547945 192.23250000000002 L 623.7095890411 193.7235 L 625.47397260274 191.85975 L 627.23835616438 194.20275 L 629.00273972603 191.487 L 630.76712328767 195.8535 L 632.53150684932 195.48075 L 634.29589041096 197.39775 L 636.0602739726 192.39225 L 637.82465753425 193.24425 L 639.58904109589 194.1495 L 641.35342465753 191.43375 L 643.11780821918 194.20275" class="highcharts-graph" data-z-index="1" stroke="#143250" stroke-width="2" stroke-linejoin="round" stroke-linecap="round" aria-hidden="false" role="region" tabindex="-1" aria-label="2019 0-64, line 3 of 9 with 365 data points."></path></g><g data-z-index="0.1" class="highcharts-markers highcharts-series-2 highcharts-line-series " visibility="hidden" transform="translate(40,83) scale(1 1)" clip-path="none" aria-hidden="true"></g><g data-z-index="0.1" class="highcharts-series highcharts-series-3 highcharts-line-series " transform="translate(40,83) scale(1 1)" clip-path="url(#highcharts-g75y1p5-2931-)" aria-hidden="false"><path fill="none" d="M 0.88219178082192 190.5285 L 2.6465753424658 190.5285 L 4.4109589041096 191.64675 L 6.1753424657534 192.39225 L 7.9397260273973 193.617 L 9.7041095890411 191.22075 L 11.468493150685 190.90125 L 13.232876712329 191.061 L 14.997260273973 191.43375 L 16.761643835616 191.5935 L 18.52602739726 192.71175 L 20.290410958904 195.58725 L 22.054794520548 189.19725 L 23.819178082192 190.47525 L 25.583561643836 191.7 L 27.347945205479 190.635 L 29.112328767123 193.2975 L 30.876712328767 193.45725 L 32.641095890411 194.20275 L 34.405479452055 192.71175 L 36.169863013699 192.07274999999998 L 37.934246575342 193.03125 L 39.698630136986 192.39225 L 41.46301369863 192.92475 L 43.227397260274 193.98975000000002 L 44.991780821918 194.5755 L 46.756164383562 190.90125 L 48.520547945205 191.8065 L 50.284931506849 192.4455 L 52.049315068493 192.0195 L 53.813698630137 191.64675 L 55.578082191781 193.404 L 57.342465753425 192.978 L 59.106849315068 192.60525 L 60.871232876712 191.54025000000001 L 62.635616438356 193.191 L 64.4 194.09625 L 66.164383561644 190.04925 L 67.928767123288 192.6585 L 69.693150684932 193.77675 L 71.457534246575 191.75325 L 73.221917808219 195.0015 L 74.986301369863 191.11425 L 76.750684931507 191.5935 L 78.515068493151 192.339 L 80.279452054795 192.126 L 82.043835616438 192.28575 L 83.808219178082 191.8065 L 85.572602739726 193.7235 L 87.33698630137 191.11425 L 89.101369863014 192.71175 L 90.865753424658 191.96625 L 92.630136986301 193.24425 L 94.394520547945 195.26775 L 96.158904109589 192.126 L 97.923287671233 193.03125 L 99.687671232877 193.98975000000002 L 101.45205479452 192.39225 L 103.21643835616 190.26225 L 104.98082191781 194.94825 L 106.74520547945 191.11425 L 108.5095890411 189.4635 L 110.27397260274 194.20275 L 112.03835616438 193.13775 L 113.80273972603 191.8065 L 115.56712328767 194.895 L 117.33150684932 195.321 L 119.09589041096 192.17925 L 120.8602739726 193.88325 L 122.62465753425 194.20275 L 124.38904109589 191.75325 L 126.15342465753 192.60525 L 127.91780821918 193.2975 L 129.68219178082 193.7235" class="highcharts-graph" data-z-index="1" stroke="#fd484e" stroke-width="2" stroke-linejoin="round" stroke-linecap="round" aria-hidden="false" role="region" tabindex="-1" aria-label="2020 0-64, line 4 of 9 with 365 data points."></path></g><g data-z-index="0.1" class="highcharts-markers highcharts-series-3 highcharts-line-series " transform="translate(40,83) scale(1 1)" clip-path="none" aria-hidden="true"></g><g data-z-index="0.1" class="highcharts-series highcharts-series-4 highcharts-line-series " visibility="hidden" transform="translate(40,83) scale(1 1)" clip-path="url(#highcharts-g75y1p5-2931-)" aria-hidden="false"><path fill="none" d="M 0.88219178082192 78.59700000000001 L 2.6465753424658 73.3785 L 4.4109589041096 78.4905 L 6.1753424657534 77.15925000000001 L 7.9397260273973 73.21875 L 9.7041095890411 76.73325 L 11.468493150685 75.88125 L 13.232876712329 77.15925000000001 L 14.997260273973 71.35499999999999 L 16.761643835616 63.048 L 18.52602739726 64.53900000000002 L 20.290410958904 67.89375000000001 L 22.054794520548 62.35575 L 23.819178082192 70.18350000000001 L 25.583561643836 71.6745 L 27.347945205479 77.79825 L 29.112328767123 75.77475000000001 L 30.876712328767 74.976 L 32.641095890411 70.18350000000001 L 34.405479452055 70.55625 L 36.169863013699 67.52100000000002 L 37.934246575342 74.81625 L 39.698630136986 68.74575000000002 L 41.46301369863 62.94149999999999 L 43.227397260274 66.7755 L 44.991780821918 65.01825 L 46.756164383562 64.965 L 48.520547945205 68.53275 L 50.284931506849 69.27825000000001 L 52.049315068493 56.39175 L 53.813698630137 53.09025 L 55.578082191781 59.214 L 57.342465753425 57.93600000000001 L 59.106849315068 48.351 L 60.871232876712 53.19675000000001 L 62.635616438356 60.172500000000014 L 64.4 61.29075 L 66.164383561644 58.04249999999999 L 67.928767123288 63.207750000000004 L 69.693150684932 63.846750000000014 L 71.457534246575 56.71125000000001 L 73.221917808219 65.4975 L 74.986301369863 65.87025 L 76.750684931507 59.214 L 78.515068493151 63.048 L 80.279452054795 61.18424999999999 L 82.043835616438 58.149 L 83.808219178082 60.918000000000006 L 85.572602739726 65.01825 L 87.33698630137 71.88750000000002 L 89.101369863014 59.79975000000002 L 90.865753424658 62.35575 L 92.630136986301 59.48025000000001 L 94.394520547945 60.278999999999996 L 96.158904109589 68.05350000000001 L 97.923287671233 72.846 L 99.687671232877 75.88125 L 101.45205479452 68.37299999999999 L 103.21643835616 73.64475000000002 L 104.98082191781 70.077 L 106.74520547945 75.2955 L 108.5095890411 76.78649999999999 L 110.27397260274 75.08250000000001 L 112.03835616438 83.97525000000002 L 113.80273972603 82.48425 L 115.56712328767 87.43650000000001 L 117.33150684932 88.34175 L 119.09589041096 86.1585 L 120.8602739726 86.3715 L 122.62465753425 90.89775 L 124.38904109589 95.31750000000001 L 126.15342465753 92.17575000000001 L 127.91780821918 91.21725 L 129.68219178082 92.229 L 131.44657534247 93.02775 L 133.21095890411 91.90950000000001 L 134.97534246575 89.247 L 136.7397260274 91.64325000000001 L 138.50410958904 94.41225 L 140.26849315068 94.2525 L 142.03287671233 98.619 L 143.79726027397 96.063 L 145.56164383562 92.86800000000001 L 147.32602739726 98.5125 L 149.0904109589 115.17975 L 150.85479452055 95.1045 L 152.61917808219 97.71375 L 154.38356164384 95.79675 L 156.14794520548 100.0035 L 157.91232876712 96.1695 L 159.67671232877 98.77875 L 161.44109589041 99.31125 L 163.20547945205 101.81400000000001 L 164.9698630137 103.305 L 166.73424657534 97.2345 L 168.49863013699 105.3285 L 170.26301369863 100.962 L 172.02739726027 102.93225 L 173.79178082192 107.778 L 175.55616438356 102.9855 L 177.32054794521 105.435 L 179.08493150685 101.22825 L 180.84931506849 100.90875 L 182.61369863014 104.74275 L 184.37808219178 105.1155 L 186.14246575342 110.49375 L 187.90684931507 109.85475 L 189.67123287671 102.77250000000001 L 191.43561643836 109.74825 L 193.2 104.10375 L 194.96438356164 105.48825000000001 L 196.72876712329 101.65425 L 198.49315068493 104.10375 L 200.25753424658 100.6425 L 202.02191780822 100.74900000000001 L 203.78630136986 97.18125 L 205.55068493151 98.29950000000001 L 207.31506849315 97.18125 L 209.07945205479 101.28150000000001 L 210.84383561644 104.52975 L 212.60821917808 104.68950000000001 L 214.37260273973 100.48275 L 216.13698630137 103.03875000000001 L 217.90136986301 101.65425 L 219.66575342466 100.0035 L 221.4301369863 103.305 L 223.19452054795 106.926 L 224.95890410959 102.71925 L 226.72328767123 107.352 L 228.48767123288 103.46475000000001 L 230.25205479452 98.35275 L 232.01643835616 97.554 L 233.78082191781 99.79050000000001 L 235.54520547945 99.63075 L 237.3095890411 108.5235 L 239.07397260274 100.26975 L 240.83835616438 94.41225 L 242.60273972603 95.1045 L 244.36712328767 98.03325000000001 L 246.13150684932 108.25725 L 247.89589041096 114.96675 L 249.6602739726 108.0975 L 251.42465753425 105.5415 L 253.18904109589 105.22200000000001 L 254.95342465753 111.87825000000001 L 256.71780821918 102.71925 L 258.48219178082 110.0145 L 260.24657534247 108.20400000000001 L 262.01095890411 92.9745 L 263.77534246575 99.63075 L 265.5397260274 100.74900000000001 L 267.30410958904 108.5235 L 269.06849315068 106.71300000000001 L 270.83287671233 109.00275 L 272.59726027397 112.7835 L 274.36164383562 117.57600000000001 L 276.12602739726 109.482 L 277.8904109589 112.5705 L 279.65479452055 112.83675000000001 L 281.41917808219 106.5 L 283.18356164384 110.38725000000001 L 284.94794520548 115.49925 L 286.71232876712 104.4765 L 288.47671232877 110.4405 L 290.24109589041 111.98475 L 292.00547945205 104.42325 L 293.7698630137 109.00275 L 295.53424657534 115.446 L 297.29863013699 112.677 L 299.06301369863 109.74825 L 300.82739726027 102.027 L 302.59178082192 109.10925 L 304.35616438356 98.56575000000001 L 306.12054794521 97.50075 L 307.88493150685 109.5885 L 309.64931506849 111.5055 L 311.41369863014 105.861 L 313.17808219178 110.38725000000001 L 314.94246575342 105.59475 L 316.70684931507 108.47025000000001 L 318.47123287671 110.65350000000001 L 320.23561643836 112.73025 L 322 112.251 L 323.76438356164 110.91975000000001 L 325.52876712329 113.26275 L 327.29315068493 105.75450000000001 L 329.05753424658 107.0325 L 330.82191780822 98.03325000000001 L 332.58630136986 104.84925 L 334.35068493151 111.399 L 336.11506849315 107.67150000000001 L 337.87945205479 106.44675000000001 L 339.64383561644 109.69500000000001 L 341.40821917808 117.52275 L 343.17260273973 117.2565 L 344.93698630137 115.446 L 346.70136986301 118.26825000000001 L 348.46575342466 111.23925 L 350.2301369863 106.12725 L 351.99452054795 106.12725 L 353.75890410959 102.1335 L 355.52328767123 104.74275 L 357.28767123288 102.39975 L 359.05205479452 109.64175 L 360.81643835616 112.251 L 362.58082191781 111.825 L 364.34520547945 112.30425 L 366.1095890411 109.42875000000001 L 367.87397260274 111.5055 L 369.63835616438 106.287 L 371.40273972603 107.19225 L 373.16712328767 108.843 L 374.93150684932 99.3645 L 376.69589041096 106.5 L 378.4602739726 101.7075 L 380.22465753425 107.67150000000001 L 381.98904109589 110.91975000000001 L 383.75342465753 115.872 L 385.51780821918 113.2095 L 387.28219178082 103.46475000000001 L 389.04657534247 109.056 L 390.81095890411 110.28075 L 392.57534246575 111.87825000000001 L 394.3397260274 116.88375 L 396.10410958904 116.08500000000001 L 397.86849315068 110.0145 L 399.63287671233 109.908 L 401.39726027397 101.65425 L 403.16164383562 107.72475 L 404.92602739726 105.3285 L 406.6904109589 112.464 L 408.45479452055 119.33325 L 410.21917808219 112.89 L 411.98356164384 114.43425 L 413.74794520548 115.3395 L 415.51232876712 105.70125 L 417.27671232877 108.9495 L 419.04109589041 106.12725 L 420.80547945205 113.90175 L 422.5698630137 110.12100000000001 L 424.33424657534 107.139 L 426.09863013699 99.79050000000001 L 427.86301369863 107.40525000000001 L 429.62739726027 112.251 L 431.39178082192 111.45225 L 433.15616438356 118.37475 L 434.92054794521 116.13825 L 436.68493150685 114.9135 L 438.44931506849 107.93775000000001 L 440.21369863014 112.3575 L 441.97808219178 113.2095 L 443.74246575342 107.778 L 445.50684931507 114.168 L 447.27123287671 108.7365 L 449.03561643836 108.63 L 450.8 106.55325 L 452.56438356164 108.25725 L 454.32876712329 111.5055 L 456.09315068493 106.87275 L 457.85753424658 110.4405 L 459.62191780822 111.66525 L 461.38630136986 105.22200000000001 L 463.15068493151 109.96125 L 464.91506849315 104.42325 L 466.67945205479 103.305 L 468.44383561644 105.48825000000001 L 470.20821917808 108.15075 L 471.97260273973 104.4765 L 473.73698630137 105.75450000000001 L 475.50136986301 102.50625000000001 L 477.26575342466 104.31675 L 479.0301369863 100.32300000000001 L 480.79452054795 102.027 L 482.55890410959 111.02625 L 484.32328767123 104.0505 L 486.08767123288 106.18050000000001 L 487.85205479452 112.51725 L 489.61643835616 100.962 L 491.38082191781 105.75450000000001 L 493.14520547945 103.99725000000001 L 494.9095890411 107.352 L 496.67397260274 104.37 L 498.43835616438 96.80850000000001 L 500.20273972603 99.3645 L 501.96712328767 96.80850000000001 L 503.73150684932 94.35900000000001 L 505.49589041096 98.77875 L 507.2602739726 105.3285 L 509.02465753425 99.684 L 510.78904109589 102.93225 L 512.55342465753 101.44125 L 514.31780821918 101.175 L 516.08219178082 98.83200000000001 L 517.84657534247 102.453 L 519.61095890411 110.28075 L 521.37534246575 108.9495 L 523.1397260274 99.471 L 524.90410958904 100.536 L 526.66849315068 101.28150000000001 L 528.43287671233 103.092 L 530.19726027397 102.82575 L 531.96164383562 102.61275 L 533.72602739726 108.36375 L 535.4904109589 107.61825 L 537.25479452055 106.3935 L 539.01917808219 105.5415 L 540.78356164384 99.471 L 542.54794520548 100.48275 L 544.31232876712 104.21025 L 546.07671232877 104.84925 L 547.84109589041 100.2165 L 549.60547945205 101.4945 L 551.3698630137 101.0685 L 553.13424657534 95.90325 L 554.89863013699 96.86175 L 556.66301369863 101.388 L 558.42739726027 101.44125 L 560.19178082192 94.94475 L 561.95616438356 97.554 L 563.72054794521 99.20475 L 565.48493150685 101.0685 L 567.24931506849 100.69575 L 569.01369863014 101.0685 L 570.77808219178 100.48275 L 572.54246575342 96.96825 L 574.30684931507 89.72625000000001 L 576.07123287671 95.37075 L 577.83561643836 97.07475000000001 L 579.6 100.37625 L 581.36438356164 108.417 L 583.12876712329 101.22825 L 584.89315068493 94.146 L 586.65753424658 97.554 L 588.42191780822 95.69025 L 590.18630136986 94.30575 L 591.95068493151 99.045 L 593.71506849315 97.4475 L 595.47945205479 93.507 L 597.24383561644 97.39425 L 599.00821917808 93.02775 L 600.77260273973 91.00425 L 602.53698630137 94.6785 L 604.30136986301 90.312 L 606.06575342466 96.11625000000001 L 607.8301369863 88.608 L 609.59452054795 90.79125 L 611.35890410959 91.32375 L 613.12328767123 89.88600000000001 L 614.88767123288 90.04575 L 616.65205479452 92.60175000000001 L 618.41643835616 102.18675 L 620.18082191781 93.45375 L 621.94520547945 92.49525 L 623.7095890411 94.62525000000001 L 625.47397260274 90.2055 L 627.23835616438 86.1585 L 629.00273972603 95.211 L 630.76712328767 94.30575 L 632.53150684932 97.39425 L 634.29589041096 91.803 L 636.0602739726 84.72075000000001 L 637.82465753425 92.44200000000001 L 639.58904109589 94.998 L 641.35342465753 90.25875 L 643.11780821918 87.01050000000001" class="highcharts-graph" data-z-index="1" stroke="#c3c3c3" stroke-width="2" stroke-linejoin="round" stroke-linecap="round" aria-hidden="false" role="region" tabindex="-1" aria-label="2017 65+, line 5 of 9 with 365 data points."></path></g><g data-z-index="0.1" class="highcharts-markers highcharts-series-4 highcharts-line-series " visibility="hidden" transform="translate(40,83) scale(1 1)" clip-path="none" aria-hidden="true"></g><g data-z-index="0.1" class="highcharts-series highcharts-series-5 highcharts-line-series " transform="translate(40,83) scale(1 1)" clip-path="url(#highcharts-g75y1p5-2931-)" aria-hidden="false"><path fill="none" d="M 0.88219178082192 91.53675 L 2.6465753424658 87.117 L 4.4109589041096 81.31275 L 6.1753424657534 83.01675 L 7.9397260273973 80.51400000000001 L 9.7041095890411 87.70275000000001 L 11.468493150685 97.8735 L 13.232876712329 93.507 L 14.997260273973 93.56025 L 16.761643835616 85.89225 L 18.52602739726 91.37700000000001 L 20.290410958904 88.2885 L 22.054794520548 91.32375 L 23.819178082192 95.26425 L 25.583561643836 87.543 L 27.347945205479 83.81550000000001 L 29.112328767123 88.821 L 30.876712328767 83.922 L 32.641095890411 86.47800000000001 L 34.405479452055 92.49525 L 36.169863013699 95.9565 L 37.934246575342 88.12875 L 39.698630136986 88.7145 L 41.46301369863 84.88050000000001 L 43.227397260274 84.29475 L 44.991780821918 85.57275 L 46.756164383562 93.24075 L 48.520547945205 92.38875 L 50.284931506849 81.31275 L 52.049315068493 90.36525 L 53.813698630137 81.2595 L 55.578082191781 83.76225 L 57.342465753425 84.40125 L 59.106849315068 86.63775 L 60.871232876712 89.88600000000001 L 62.635616438356 83.81550000000001 L 64.4 84.08175 L 66.164383561644 77.106 L 67.928767123288 80.94 L 69.693150684932 79.39574999999999 L 71.457534246575 80.78025 L 73.221917808219 80.03475 L 74.986301369863 75.72149999999999 L 76.750684931507 74.2305 L 78.515068493151 78.86325 L 80.279452054795 74.124 L 82.043835616438 68.63925 L 83.808219178082 74.55000000000001 L 85.572602739726 69.3315 L 87.33698630137 67.6275 L 89.101369863014 64.326 L 90.865753424658 61.397250000000014 L 92.630136986301 62.089500000000015 L 94.394520547945 55.48650000000001 L 96.158904109589 63.048 L 97.923287671233 63.846750000000014 L 99.687671232877 53.83574999999999 L 101.45205479452 53.25 L 103.21643835616 46.00800000000001 L 104.98082191781 42.014250000000004 L 106.74520547945 42.28050000000002 L 108.5095890411 32.69550000000001 L 110.27397260274 38.71275 L 112.03835616438 32.53575000000001 L 113.80273972603 33.547500000000014 L 115.56712328767 33.33449999999999 L 117.33150684932 39.085499999999996 L 119.09589041096 32.269499999999994 L 120.8602739726 38.65950000000001 L 122.62465753425 38.8725 L 124.38904109589 39.35175000000001 L 126.15342465753 46.06125 L 127.91780821918 50.10825 L 129.68219178082 53.09025 L 131.44657534247 47.76525000000001 L 133.21095890411 60.70500000000001 L 134.97534246575 63.47399999999999 L 136.7397260274 60.172500000000014 L 138.50410958904 59.693250000000006 L 140.26849315068 61.557000000000016 L 142.03287671233 60.65174999999999 L 143.79726027397 54.8475 L 145.56164383562 64.113 L 147.32602739726 78.11775 L 149.0904109589 69.70425 L 150.85479452055 71.56800000000001 L 152.61917808219 67.095 L 154.38356164384 74.07075 L 156.14794520548 78.01124999999999 L 157.91232876712 79.39574999999999 L 159.67671232877 86.3715 L 161.44109589041 88.02225 L 163.20547945205 76.41375 L 164.9698630137 75.88125 L 166.73424657534 80.56725 L 168.49863013699 86.10525 L 170.26301369863 87.43650000000001 L 172.02739726027 84.561 L 173.79178082192 84.40125 L 175.55616438356 78.2775 L 177.32054794521 87.70275000000001 L 179.08493150685 85.2 L 180.84931506849 87.96900000000001 L 182.61369863014 94.0395 L 184.37808219178 97.39425 L 186.14246575342 94.0395 L 187.90684931507 93.87975 L 189.67123287671 99.1515 L 191.43561643836 98.24625 L 193.2 91.90950000000001 L 194.96438356164 101.54775000000001 L 196.72876712329 98.67225 L 198.49315068493 99.95025 L 200.25753424658 97.98 L 202.02191780822 101.01525000000001 L 203.78630136986 106.44675000000001 L 205.55068493151 106.6065 L 207.31506849315 100.26975 L 209.07945205479 107.08575 L 210.84383561644 100.16325 L 212.60821917808 102.3465 L 214.37260273973 104.52975 L 216.13698630137 105.70125 L 217.90136986301 104.68950000000001 L 219.66575342466 103.99725000000001 L 221.4301369863 113.10300000000001 L 223.19452054795 106.12725 L 224.95890410959 95.58375000000001 L 226.72328767123 92.60175000000001 L 228.48767123288 100.69575 L 230.25205479452 106.18050000000001 L 232.01643835616 103.305 L 233.78082191781 107.40525000000001 L 235.54520547945 101.22825 L 237.3095890411 101.12175 L 239.07397260274 108.36375 L 240.83835616438 106.34025 L 242.60273972603 107.51175 L 244.36712328767 106.074 L 246.13150684932 114.64725 L 247.89589041096 113.529 L 249.6602739726 106.71300000000001 L 251.42465753425 102.39975 L 253.18904109589 107.40525000000001 L 254.95342465753 101.388 L 256.71780821918 107.8845 L 258.48219178082 109.85475 L 260.24657534247 97.0215 L 262.01095890411 94.62525000000001 L 263.77534246575 98.35275 L 265.5397260274 103.8375 L 267.30410958904 100.74900000000001 L 269.06849315068 109.69500000000001 L 270.83287671233 115.7655 L 272.59726027397 108.5235 L 274.36164383562 102.879 L 276.12602739726 107.61825 L 277.8904109589 105.435 L 279.65479452055 101.33475 L 281.41917808219 105.75450000000001 L 283.18356164384 108.417 L 284.94794520548 108.68325 L 286.71232876712 115.9785 L 288.47671232877 114.54075 L 290.24109589041 114.168 L 292.00547945205 112.51725 L 293.7698630137 108.78975 L 295.53424657534 119.33325 L 297.29863013699 111.87825000000001 L 299.06301369863 108.9495 L 300.82739726027 108.78975 L 302.59178082192 106.34025 L 304.35616438356 115.02 L 306.12054794521 117.73575 L 307.88493150685 114.22125 L 309.64931506849 111.61200000000001 L 311.41369863014 106.44675000000001 L 313.17808219178 110.12100000000001 L 314.94246575342 103.518 L 316.70684931507 101.54775000000001 L 318.47123287671 104.52975 L 320.23561643836 110.4405 L 322 113.955 L 323.76438356164 103.25175 L 325.52876712329 103.25175 L 327.29315068493 97.128 L 329.05753424658 102.666 L 330.82191780822 111.399 L 332.58630136986 110.0145 L 334.35068493151 105.91425 L 336.11506849315 109.908 L 337.87945205479 110.81325 L 339.64383561644 106.71300000000001 L 341.40821917808 109.21575 L 343.17260273973 113.90175 L 344.93698630137 112.9965 L 346.70136986301 102.82575 L 348.46575342466 102.50625000000001 L 350.2301369863 105.59475 L 351.99452054795 107.72475 L 353.75890410959 101.44125 L 355.52328767123 105.48825000000001 L 357.28767123288 111.2925 L 359.05205479452 102.879 L 360.81643835616 103.25175 L 362.58082191781 97.98 L 364.34520547945 90.36525 L 366.1095890411 84.08175 L 367.87397260274 80.62049999999999 L 369.63835616438 98.9385 L 371.40273972603 90.68475000000001 L 373.16712328767 82.80375000000001 L 374.93150684932 76.893 L 376.69589041096 80.94 L 378.4602739726 73.43175 L 380.22465753425 69.5445 L 381.98904109589 86.53125 L 383.75342465753 94.73175 L 385.51780821918 80.35425000000001 L 387.28219178082 79.39574999999999 L 389.04657534247 80.14125000000001 L 390.81095890411 95.69025 L 392.57534246575 106.97925000000001 L 394.3397260274 112.09125 L 396.10410958904 97.92675 L 397.86849315068 101.175 L 399.63287671233 108.78975 L 401.39726027397 101.54775000000001 L 403.16164383562 104.68950000000001 L 404.92602739726 105.435 L 406.6904109589 106.87275 L 408.45479452055 102.39975 L 410.21917808219 105.5415 L 411.98356164384 100.69575 L 413.74794520548 97.60725000000001 L 415.51232876712 104.26350000000001 L 417.27671232877 112.9965 L 419.04109589041 118.80075000000001 L 420.80547945205 108.63 L 422.5698630137 107.61825 L 424.33424657534 107.61825 L 426.09863013699 105.75450000000001 L 427.86301369863 113.316 L 429.62739726027 114.2745 L 431.39178082192 111.87825000000001 L 433.15616438356 99.95025 L 434.92054794521 104.0505 L 436.68493150685 105.27525 L 438.44931506849 106.18050000000001 L 440.21369863014 103.25175 L 441.97808219178 115.872 L 443.74246575342 115.12650000000001 L 445.50684931507 110.38725000000001 L 447.27123287671 107.29875 L 449.03561643836 102.027 L 450.8 106.02075 L 452.56438356164 102.71925 L 454.32876712329 113.79525 L 456.09315068493 113.10300000000001 L 457.85753424658 109.42875000000001 L 459.62191780822 101.44125 L 461.38630136986 102.71925 L 463.15068493151 96.75525 L 464.91506849315 105.27525 L 466.67945205479 115.446 L 468.44383561644 110.38725000000001 L 470.20821917808 108.57675 L 471.97260273973 116.99025 L 473.73698630137 109.00275 L 475.50136986301 108.20400000000001 L 477.26575342466 104.4765 L 479.0301369863 112.09125 L 480.79452054795 110.547 L 482.55890410959 106.87275 L 484.32328767123 104.42325 L 486.08767123288 110.334 L 487.85205479452 105.70125 L 489.61643835616 103.944 L 491.38082191781 102.027 L 493.14520547945 110.12100000000001 L 494.9095890411 107.778 L 496.67397260274 103.6245 L 498.43835616438 102.24000000000001 L 500.20273972603 100.32300000000001 L 501.96712328767 100.8555 L 503.73150684932 101.65425 L 505.49589041096 105.06225 L 507.2602739726 102.93225 L 509.02465753425 104.95575000000001 L 510.78904109589 103.99725000000001 L 512.55342465753 106.287 L 514.31780821918 103.1985 L 516.08219178082 110.60025 L 517.84657534247 111.0795 L 519.61095890411 110.4405 L 521.37534246575 103.6245 L 523.1397260274 104.42325 L 524.90410958904 104.9025 L 526.66849315068 101.7075 L 528.43287671233 110.91975000000001 L 530.19726027397 103.6245 L 531.96164383562 106.02075 L 533.72602739726 101.9205 L 535.4904109589 104.37 L 537.25479452055 103.67775 L 539.01917808219 101.7075 L 540.78356164384 102.9855 L 542.54794520548 104.68950000000001 L 544.31232876712 96.43575 L 546.07671232877 97.92675 L 547.84109589041 102.39975 L 549.60547945205 95.58375000000001 L 551.3698630137 98.03325000000001 L 553.13424657534 102.879 L 554.89863013699 99.684 L 556.66301369863 102.77250000000001 L 558.42739726027 100.80225 L 560.19178082192 107.0325 L 561.95616438356 107.08575 L 563.72054794521 99.20475 L 565.48493150685 107.139 L 567.24931506849 104.37 L 569.01369863014 99.95025 L 570.77808219178 96.276 L 572.54246575342 97.34100000000001 L 574.30684931507 90.41850000000001 L 576.07123287671 95.5305 L 577.83561643836 97.28775 L 579.6 106.71300000000001 L 581.36438356164 98.03325000000001 L 583.12876712329 98.29950000000001 L 584.89315068493 100.2165 L 586.65753424658 89.40675 L 588.42191780822 94.73175 L 590.18630136986 95.31750000000001 L 591.95068493151 92.38875 L 593.71506849315 89.5665 L 595.47945205479 95.85000000000001 L 597.24383561644 95.9565 L 599.00821917808 92.7615 L 600.77260273973 87.756 L 602.53698630137 97.82025 L 604.30136986301 92.5485 L 606.06575342466 99.5775 L 607.8301369863 93.1875 L 609.59452054795 92.81475 L 611.35890410959 94.2525 L 613.12328767123 94.09275000000001 L 614.88767123288 98.45925 L 616.65205479452 99.471 L 618.41643835616 89.19375000000001 L 620.18082191781 92.7615 L 621.94520547945 90.312 L 623.7095890411 87.48975 L 625.47397260274 83.86875 L 627.23835616438 84.4545 L 629.00273972603 95.37075 L 630.76712328767 92.3355 L 632.53150684932 99.84375 L 634.29589041096 96.54225000000001 L 636.0602739726 93.56025 L 637.82465753425 89.61975 L 639.58904109589 94.998 L 641.35342465753 102.24000000000001 L 643.11780821918 95.69025" class="highcharts-graph" data-z-index="1" stroke="#2c74b5" stroke-width="2" stroke-linejoin="round" stroke-linecap="round" aria-hidden="false" role="region" tabindex="-1" aria-label="2018 65+, line 6 of 9 with 365 data points."></path></g><g data-z-index="0.1" class="highcharts-markers highcharts-series-5 highcharts-line-series " transform="translate(40,83) scale(1 1)" clip-path="none" aria-hidden="true"></g><g data-z-index="0.1" class="highcharts-series highcharts-series-6 highcharts-line-series " visibility="hidden" transform="translate(40,83) scale(1 1)" clip-path="url(#highcharts-g75y1p5-2931-)" aria-hidden="false"><path fill="none" d="M 0.88219178082192 93.081 L 2.6465753424658 95.79675 L 4.4109589041096 96.38250000000001 L 6.1753424657534 88.76775 L 7.9397260273973 85.413 L 9.7041095890411 93.87975 L 11.468493150685 90.89775 L 13.232876712329 87.8625 L 14.997260273973 88.821 L 16.761643835616 89.61975 L 18.52602739726 86.904 L 20.290410958904 93.13425000000001 L 22.054794520548 94.146 L 23.819178082192 87.48975 L 25.583561643836 86.95725 L 27.347945205479 87.17025000000001 L 29.112328767123 88.34175 L 30.876712328767 87.8625 L 32.641095890411 96.489 L 34.405479452055 95.5305 L 36.169863013699 92.38875 L 37.934246575342 88.7145 L 39.698630136986 84.93375 L 41.46301369863 84.2415 L 43.227397260274 85.0935 L 44.991780821918 86.691 L 46.756164383562 86.95725 L 48.520547945205 82.37774999999999 L 50.284931506849 88.87425 L 52.049315068493 89.72625000000001 L 53.813698630137 88.7145 L 55.578082191781 77.31900000000002 L 57.342465753425 82.69725 L 59.106849315068 87.543 L 60.871232876712 88.55475 L 62.635616438356 82.857 L 64.4 82.96350000000001 L 66.164383561644 82.005 L 67.928767123288 85.51950000000001 L 69.693150684932 84.18825000000001 L 71.457534246575 84.774 L 73.221917808219 85.0935 L 74.986301369863 85.413 L 76.750684931507 79.92824999999999 L 78.515068493151 81.95175 L 80.279452054795 78.17099999999999 L 82.043835616438 83.12325000000001 L 83.808219178082 85.67925 L 85.572602739726 79.3425 L 87.33698630137 81.31275 L 89.101369863014 76.20075 L 90.865753424658 76.83975000000001 L 92.630136986301 77.85150000000002 L 94.394520547945 85.94550000000001 L 96.158904109589 89.034 L 97.923287671233 78.22425000000001 L 99.687671232877 79.12950000000001 L 101.45205479452 80.1945 L 103.21643835616 76.14750000000001 L 104.98082191781 73.3785 L 106.74520547945 80.088 L 108.5095890411 83.44274999999999 L 110.27397260274 80.78025 L 112.03835616438 79.50225 L 113.80273972603 77.106 L 115.56712328767 74.86950000000002 L 117.33150684932 78.70349999999999 L 119.09589041096 85.25325000000001 L 120.8602739726 91.59 L 122.62465753425 89.46000000000001 L 124.38904109589 81.63225 L 126.15342465753 82.27125000000001 L 127.91780821918 84.2415 L 129.68219178082 83.44274999999999 L 131.44657534247 82.59075000000001 L 133.21095890411 91.164 L 134.97534246575 92.229 L 136.7397260274 93.45375 L 138.50410958904 89.19375000000001 L 140.26849315068 90.099 L 142.03287671233 84.88050000000001 L 143.79726027397 89.46000000000001 L 145.56164383562 93.87975 L 147.32602739726 98.193 L 149.0904109589 92.81475 L 150.85479452055 90.04575 L 152.61917808219 90.6315 L 154.38356164384 87.38325 L 156.14794520548 92.1225 L 157.91232876712 102.18675 L 159.67671232877 93.02775 L 161.44109589041 91.85625 L 163.20547945205 91.21725 L 164.9698630137 85.3065 L 166.73424657534 91.64325000000001 L 168.49863013699 93.081 L 170.26301369863 102.50625000000001 L 172.02739726027 93.77325 L 173.79178082192 98.406 L 175.55616438356 94.41225 L 177.32054794521 99.41775 L 179.08493150685 97.71375 L 180.84931506849 99.73725 L 182.61369863014 102.39975 L 184.37808219178 92.60175000000001 L 186.14246575342 97.82025 L 187.90684931507 95.424 L 189.67123287671 94.41225 L 191.43561643836 94.785 L 193.2 100.58925 L 194.96438356164 100.69575 L 196.72876712329 101.9205 L 198.49315068493 93.02775 L 200.25753424658 91.32375 L 202.02191780822 92.44200000000001 L 203.78630136986 94.73175 L 205.55068493151 103.03875000000001 L 207.31506849315 108.5235 L 209.07945205479 105.1155 L 210.84383561644 101.601 L 212.60821917808 101.28150000000001 L 214.37260273973 105.22200000000001 L 216.13698630137 98.88525 L 217.90136986301 103.25175 L 219.66575342466 109.85475 L 221.4301369863 103.518 L 223.19452054795 107.991 L 224.95890410959 99.684 L 226.72328767123 98.03325000000001 L 228.48767123288 97.554 L 230.25205479452 103.46475000000001 L 232.01643835616 110.973 L 233.78082191781 103.4115 L 235.54520547945 103.67775 L 237.3095890411 108.15075 L 239.07397260274 99.95025 L 240.83835616438 96.75525 L 242.60273972603 98.5125 L 244.36712328767 105.06225 L 246.13150684932 101.388 L 247.89589041096 97.8735 L 249.6602739726 103.89075 L 251.42465753425 105.06225 L 253.18904109589 98.99175 L 254.95342465753 106.6065 L 256.71780821918 110.60025 L 258.48219178082 102.77250000000001 L 260.24657534247 105.3285 L 262.01095890411 105.75450000000001 L 263.77534246575 109.96125 L 265.5397260274 104.42325 L 267.30410958904 102.50625000000001 L 269.06849315068 101.388 L 270.83287671233 98.35275 L 272.59726027397 93.24075 L 274.36164383562 88.44825 L 276.12602739726 98.9385 L 277.8904109589 109.53525 L 279.65479452055 107.40525000000001 L 281.41917808219 112.30425 L 283.18356164384 113.10300000000001 L 284.94794520548 106.8195 L 286.71232876712 106.926 L 288.47671232877 108.15075 L 290.24109589041 105.06225 L 292.00547945205 105.861 L 293.7698630137 113.63550000000001 L 295.53424657534 112.038 L 297.29863013699 102.027 L 299.06301369863 93.13425000000001 L 300.82739726027 105.1155 L 302.59178082192 110.28075 L 304.35616438356 113.04975 L 306.12054794521 115.07325 L 307.88493150685 103.25175 L 309.64931506849 96.96825 L 311.41369863014 82.96350000000001 L 313.17808219178 92.81475 L 314.94246575342 105.91425 L 316.70684931507 108.68325 L 318.47123287671 101.175 L 320.23561643836 97.0215 L 322 111.34575 L 323.76438356164 107.352 L 325.52876712329 109.00275 L 327.29315068493 105.06225 L 329.05753424658 109.482 L 330.82191780822 114.54075 L 332.58630136986 115.12650000000001 L 334.35068493151 112.038 L 336.11506849315 108.63 L 337.87945205479 103.1985 L 339.64383561644 101.28150000000001 L 341.40821917808 106.6065 L 343.17260273973 110.81325 L 344.93698630137 110.12100000000001 L 346.70136986301 107.93775000000001 L 348.46575342466 109.85475 L 350.2301369863 106.18050000000001 L 351.99452054795 98.77875 L 353.75890410959 99.3645 L 355.52328767123 106.87275 L 357.28767123288 102.1335 L 359.05205479452 102.50625000000001 L 360.81643835616 89.93925 L 362.58082191781 74.86950000000002 L 364.34520547945 62.675250000000005 L 366.1095890411 72.846 L 367.87397260274 92.229 L 369.63835616438 96.702 L 371.40273972603 96.32925 L 373.16712328767 104.63625 L 374.93150684932 107.0325 L 376.69589041096 102.39975 L 378.4602739726 104.63625 L 380.22465753425 116.13825 L 381.98904109589 107.40525000000001 L 383.75342465753 102.61275 L 385.51780821918 100.26975 L 387.28219178082 111.55875 L 389.04657534247 104.157 L 390.81095890411 105.80775 L 392.57534246575 116.99025 L 394.3397260274 109.85475 L 396.10410958904 117.6825 L 397.86849315068 116.8305 L 399.63287671233 111.9315 L 401.39726027397 105.5415 L 403.16164383562 110.0145 L 404.92602739726 104.9025 L 406.6904109589 110.334 L 408.45479452055 111.5055 L 410.21917808219 114.807 L 411.98356164384 112.62375 L 413.74794520548 109.69500000000001 L 415.51232876712 105.9675 L 417.27671232877 98.99175 L 419.04109589041 97.6605 L 420.80547945205 96.32925 L 422.5698630137 93.72 L 424.33424657534 98.619 L 426.09863013699 101.97375000000001 L 427.86301369863 105.16875 L 429.62739726027 104.583 L 431.39178082192 114.32775000000001 L 433.15616438356 113.15625 L 434.92054794521 107.2455 L 436.68493150685 108.417 L 438.44931506849 112.677 L 440.21369863014 111.0795 L 441.97808219178 110.2275 L 443.74246575342 106.8195 L 445.50684931507 110.38725000000001 L 447.27123287671 110.60025 L 449.03561643836 109.32225 L 450.8 106.074 L 452.56438356164 108.63 L 454.32876712329 111.2925 L 456.09315068493 106.6065 L 457.85753424658 106.5 L 459.62191780822 107.61825 L 461.38630136986 107.778 L 463.15068493151 109.85475 L 464.91506849315 106.5 L 466.67945205479 109.269 L 468.44383561644 100.26975 L 470.20821917808 100.26975 L 471.97260273973 95.5305 L 473.73698630137 99.897 L 475.50136986301 99.73725 L 477.26575342466 107.8845 L 479.0301369863 104.74275 L 480.79452054795 103.78425 L 482.55890410959 98.77875 L 484.32328767123 100.4295 L 486.08767123288 107.2455 L 487.85205479452 99.1515 L 489.61643835616 106.71300000000001 L 491.38082191781 113.8485 L 493.14520547945 105.3285 L 494.9095890411 98.13975 L 496.67397260274 96.489 L 498.43835616438 99.20475 L 500.20273972603 101.7075 L 501.96712328767 97.34100000000001 L 503.73150684932 97.92675 L 505.49589041096 93.13425000000001 L 507.2602739726 92.9745 L 509.02465753425 97.0215 L 510.78904109589 107.0325 L 512.55342465753 98.9385 L 514.31780821918 97.82025 L 516.08219178082 105.59475 L 517.84657534247 99.95025 L 519.61095890411 102.61275 L 521.37534246575 104.42325 L 523.1397260274 98.03325000000001 L 524.90410958904 97.4475 L 526.66849315068 105.48825000000001 L 528.43287671233 104.31675 L 530.19726027397 104.74275 L 531.96164383562 105.9675 L 533.72602739726 101.76075 L 535.4904109589 98.7255 L 537.25479452055 102.666 L 539.01917808219 96.11625000000001 L 540.78356164384 99.20475 L 542.54794520548 95.31750000000001 L 544.31232876712 97.2345 L 546.07671232877 97.18125 L 547.84109589041 98.83200000000001 L 549.60547945205 98.5125 L 551.3698630137 99.63075 L 553.13424657534 107.29875 L 554.89863013699 95.15775000000001 L 556.66301369863 94.146 L 558.42739726027 96.915 L 560.19178082192 99.045 L 561.95616438356 94.0395 L 563.72054794521 97.82025 L 565.48493150685 98.56575000000001 L 567.24931506849 95.58375000000001 L 569.01369863014 93.1875 L 570.77808219178 94.30575 L 572.54246575342 91.00425 L 574.30684931507 90.738 L 576.07123287671 91.64325000000001 L 577.83561643836 95.69025 L 579.6 90.099 L 581.36438356164 91.37700000000001 L 583.12876712329 89.19375000000001 L 584.89315068493 89.5665 L 586.65753424658 88.87425 L 588.42191780822 98.193 L 590.18630136986 97.98 L 591.95068493151 88.608 L 593.71506849315 89.51325 L 595.47945205479 92.229 L 597.24383561644 90.36525 L 599.00821917808 83.922 L 600.77260273973 91.11075 L 602.53698630137 84.50775000000002 L 604.30136986301 87.6495 L 606.06575342466 94.94475 L 607.8301369863 90.2055 L 609.59452054795 85.2 L 611.35890410959 84.774 L 613.12328767123 85.99875 L 614.88767123288 91.11075 L 616.65205479452 97.0215 L 618.41643835616 83.81550000000001 L 620.18082191781 88.821 L 621.94520547945 86.31825 L 623.7095890411 84.13499999999999 L 625.47397260274 90.47175 L 627.23835616438 93.56025 L 629.00273972603 86.63775 L 630.76712328767 93.294 L 632.53150684932 94.41225 L 634.29589041096 93.294 L 636.0602739726 92.38875 L 637.82465753425 101.4945 L 639.58904109589 99.5775 L 641.35342465753 94.19925 L 643.11780821918 89.7795" class="highcharts-graph" data-z-index="1" stroke="#143250" stroke-width="2" stroke-linejoin="round" stroke-linecap="round" aria-hidden="false" role="region" tabindex="-1" aria-label="2019 65+, line 7 of 9 with 365 data points."></path></g><g data-z-index="0.1" class="highcharts-markers highcharts-series-6 highcharts-line-series " visibility="hidden" transform="translate(40,83) scale(1 1)" clip-path="none" aria-hidden="true"></g><g data-z-index="0.1" class="highcharts-series highcharts-series-7 highcharts-line-series " transform="translate(40,83) scale(1 1)" clip-path="url(#highcharts-g75y1p5-2931-)" aria-hidden="false"><path fill="none" d="M 0.88219178082192 92.9745 L 2.6465753424658 86.052 L 4.4109589041096 87.6495 L 6.1753424657534 86.53125 L 7.9397260273973 98.13975 L 9.7041095890411 93.13425000000001 L 11.468493150685 86.052 L 13.232876712329 84.29475 L 14.997260273973 79.662 L 16.761643835616 81.2595 L 18.52602739726 90.89775 L 20.290410958904 91.43025 L 22.054794520548 90.15225000000001 L 23.819178082192 85.2 L 25.583561643836 91.53675 L 27.347945205479 82.27125000000001 L 29.112328767123 89.72625000000001 L 30.876712328767 89.7795 L 32.641095890411 94.62525000000001 L 34.405479452055 93.34725 L 36.169863013699 90.738 L 37.934246575342 90.312 L 39.698630136986 88.66125000000001 L 41.46301369863 82.48425 L 43.227397260274 90.2055 L 44.991780821918 91.0575 L 46.756164383562 86.1585 L 48.520547945205 80.78025 L 50.284931506849 83.01675 L 52.049315068493 87.48975 L 53.813698630137 79.92824999999999 L 55.578082191781 84.40125 L 57.342465753425 88.2885 L 59.106849315068 88.395 L 60.871232876712 81.2595 L 62.635616438356 91.00425 L 64.4 94.785 L 66.164383561644 90.36525 L 67.928767123288 90.15225000000001 L 69.693150684932 93.45375 L 71.457534246575 83.54925 L 73.221917808219 81.31275 L 74.986301369863 87.8625 L 76.750684931507 86.7975 L 78.515068493151 85.99875 L 80.279452054795 85.7325 L 82.043835616438 88.821 L 83.808219178082 85.57275 L 85.572602739726 92.1225 L 87.33698630137 90.6315 L 89.101369863014 89.19375000000001 L 90.865753424658 93.6135 L 92.630136986301 91.74975 L 94.394520547945 90.41850000000001 L 96.158904109589 88.0755 L 97.923287671233 86.53125 L 99.687671232877 85.67925 L 101.45205479452 90.95100000000001 L 103.21643835616 83.49600000000001 L 104.98082191781 92.1225 L 106.74520547945 85.46625 L 108.5095890411 84.82724999999999 L 110.27397260274 85.78575000000001 L 112.03835616438 87.59625 L 113.80273972603 82.96350000000001 L 115.56712328767 89.51325 L 117.33150684932 88.87425 L 119.09589041096 83.07 L 120.8602739726 83.22975 L 122.62465753425 81.4725 L 124.38904109589 86.691 L 126.15342465753 86.74425000000001 L 127.91780821918 87.6495 L 129.68219178082 90.68475000000001" class="highcharts-graph" data-z-index="1" stroke="#fd484e" stroke-width="2" stroke-linejoin="round" stroke-linecap="round" aria-hidden="false" role="region" tabindex="-1" aria-label="2020 65+, line 8 of 9 with 365 data points."></path></g><g data-z-index="0.1" class="highcharts-markers highcharts-series-7 highcharts-line-series " transform="translate(40,83) scale(1 1)" clip-path="none" aria-hidden="true"></g><g data-z-index="0.1" class="highcharts-series highcharts-series-8 highcharts-line-series " transform="translate(40,83) scale(1 1)" clip-path="url(#highcharts-g75y1p5-2931-)" aria-hidden="false"><path fill="none" d="M 0.88219178082192 66.5625 L 0.88219178082192 190.635" class="highcharts-graph" data-z-index="1" stroke-linejoin="round" stroke-linecap="round" aria-hidden="false" role="region" tabindex="-1" aria-label="Gesetzliche Änderungen, line 9 of 9 with 2 data points."></path></g><g data-z-index="0.1" class="highcharts-markers highcharts-series-8 highcharts-line-series " transform="translate(40,83) scale(1 1)" clip-path="none" aria-hidden="true"></g></g><text x="40" text-anchor="start" class="highcharts-title" data-z-index="4" style="color:#333333;font-size:15px;font-family:&quot;Statis Sans&quot;, sans-serif;font-weight:bold;fill:#333333;" y="51" aria-hidden="true"><tspan>Tägliche Sterbefallzahlen in den Altersgruppen 0-64 und 65+ in Deutschland</tspan></text><text x="40" text-anchor="start" class="highcharts-subtitle" data-z-index="4" style="color:#333333;font-family:&quot;Statis Sans&quot;, sans-serif;font-size:13px;fill:#333333;" y="73" aria-hidden="true"></text><g data-z-index="6" class="highcharts-data-labels highcharts-series-8 highcharts-line-series " transform="translate(40,83) scale(1 1)" aria-hidden="true"><g class="highcharts-label highcharts-data-label highcharts-data-label-color-undefined" data-z-index="1" transform="translate(1,26)"><text x="5" data-z-index="1" style="font-size:13px;font-weight:regular;font-family:&quot;Statis Sans&quot;, sans-serif;color:#000000;fill:#000000;" y="18"><tspan x="5" y="18" class="highcharts-text-outline" fill="#FFFFFF" stroke="#FFFFFF" stroke-width="2px" stroke-linejoin="round" style="">Altersgruppe</tspan><tspan x="5" dy="16" class="highcharts-text-outline" fill="#FFFFFF" stroke="#FFFFFF" stroke-width="2px" stroke-linejoin="round" style="">65+</tspan><tspan x="5" y="18">Altersgruppe</tspan><tspan x="5" dy="16">65+</tspan></text></g><g class="highcharts-label highcharts-data-label highcharts-data-label-color-undefined" data-z-index="1" transform="translate(1,150)"><text x="5" data-z-index="1" style="font-size:13px;font-weight:regular;font-family:&quot;Statis Sans&quot;, sans-serif;color:#000000;fill:#000000;" y="18"><tspan x="5" y="18" class="highcharts-text-outline" fill="#FFFFFF" stroke="#FFFFFF" stroke-width="2px" stroke-linejoin="round" style="">Altersgruppe</tspan><tspan x="5" dy="16" class="highcharts-text-outline" fill="#FFFFFF" stroke="#FFFFFF" stroke-width="2px" stroke-linejoin="round" style="">0-64</tspan><tspan x="5" y="18">Altersgruppe</tspan><tspan x="5" dy="16">0-64</tspan></text></g></g><g class="highcharts-legend" data-z-index="7" transform="translate(25,319)" aria-hidden="true"><rect fill="none" class="highcharts-legend-box" rx="0" ry="0" x="0" y="0" width="613" height="63" visibility="visible"></rect><g data-z-index="1"><g><g class="highcharts-legend-item highcharts-line-series highcharts-color-undefined highcharts-series-0 highcharts-legend-item-hidden" data-z-index="1" transform="translate(15,10)"><path fill="none" d="M 0 14 L 16 14" class="highcharts-graph" stroke="#cccccc" stroke-width="2"></path><text x="21" style="color:#cccccc;cursor:pointer;font-size:13px;font-weight:regular;font-family:&quot;Statis Sans&quot;, sans-serif;fill:#cccccc;" text-anchor="start" data-z-index="2" y="18"><tspan>2017 0-64</tspan></text></g><g class="highcharts-legend-item highcharts-line-series highcharts-color-undefined highcharts-series-1" data-z-index="1" transform="translate(115.65625,10)"><path fill="none" d="M 0 14 L 16 14" class="highcharts-graph" stroke="#2c74b5" stroke-width="2"></path><text x="21" y="18" style="color:#333333;cursor:pointer;font-size:13px;font-weight:regular;font-family:&quot;Statis Sans&quot;, sans-serif;fill:#333333;" text-anchor="start" data-z-index="2"><tspan>2018 0-64</tspan></text></g><g class="highcharts-legend-item highcharts-line-series highcharts-color-undefined highcharts-series-2 highcharts-legend-item-hidden" data-z-index="1" transform="translate(216.3125,10)"><path fill="none" d="M 0 14 L 16 14" class="highcharts-graph" stroke="#cccccc" stroke-width="2"></path><text x="21" y="18" style="color:#cccccc;cursor:pointer;font-size:13px;font-weight:regular;font-family:&quot;Statis Sans&quot;, sans-serif;fill:#cccccc;" text-anchor="start" data-z-index="2"><tspan>2019 0-64</tspan></text></g><g class="highcharts-legend-item highcharts-line-series highcharts-color-undefined highcharts-series-3" data-z-index="1" transform="translate(316.96875,10)"><path fill="none" d="M 0 14 L 16 14" class="highcharts-graph" stroke="#fd484e" stroke-width="2"></path><text x="21" y="18" style="color:#333333;cursor:pointer;font-size:13px;font-weight:regular;font-family:&quot;Statis Sans&quot;, sans-serif;fill:#333333;" text-anchor="start" data-z-index="2"><tspan>2020 0-64</tspan></text></g><g class="highcharts-legend-item highcharts-line-series highcharts-color-undefined highcharts-series-4 highcharts-legend-item-hidden" data-z-index="1" transform="translate(417.625,10)"><path fill="none" d="M 0 14 L 16 14" class="highcharts-graph" stroke="#cccccc" stroke-width="2"></path><text x="21" y="18" style="color:#cccccc;cursor:pointer;font-size:13px;font-weight:regular;font-family:&quot;Statis Sans&quot;, sans-serif;fill:#cccccc;" text-anchor="start" data-z-index="2"><tspan>2017 65+</tspan></text></g><g class="highcharts-legend-item highcharts-line-series highcharts-color-undefined highcharts-series-5" data-z-index="1" transform="translate(518.28125,10)"><path fill="none" d="M 0 14 L 16 14" class="highcharts-graph" stroke="#2c74b5" stroke-width="2"></path><text x="21" y="18" style="color:#333333;cursor:pointer;font-size:13px;font-weight:regular;font-family:&quot;Statis Sans&quot;, sans-serif;fill:#333333;" text-anchor="start" data-z-index="2"><tspan>2018 65+</tspan></text></g><g class="highcharts-legend-item highcharts-line-series highcharts-color-undefined highcharts-series-6 highcharts-legend-item-hidden" data-z-index="1" transform="translate(15,29)"><path fill="none" d="M 0 14 L 16 14" class="highcharts-graph" stroke="#cccccc" stroke-width="2"></path><text x="21" y="18" style="color:#cccccc;cursor:pointer;font-size:13px;font-weight:regular;font-family:&quot;Statis Sans&quot;, sans-serif;fill:#cccccc;" text-anchor="start" data-z-index="2"><tspan>2019 65+</tspan></text></g><g class="highcharts-legend-item highcharts-line-series highcharts-color-undefined highcharts-series-7" data-z-index="1" transform="translate(115.65625,29)"><path fill="none" d="M 0 14 L 16 14" class="highcharts-graph" stroke="#fd484e" stroke-width="2"></path><text x="21" y="18" style="color:#333333;cursor:pointer;font-size:13px;font-weight:regular;font-family:&quot;Statis Sans&quot;, sans-serif;fill:#333333;" text-anchor="start" data-z-index="2"><tspan>2020 65+</tspan></text></g></g></g></g><g class="highcharts-axis-labels highcharts-xaxis-labels" data-z-index="7" aria-hidden="true"><text x="57.6875" style="color:#333333;cursor:default;font-size:13px;font-family:&quot;Statis Sans&quot;, sans-serif;fill:#333333;" text-anchor="middle" transform="translate(0,0)" y="317" opacity="1">01.01.</text><text x="129.10136986301" style="color:#333333;cursor:default;font-size:13px;font-family:&quot;Statis Sans&quot;, sans-serif;fill:#333333;" text-anchor="middle" transform="translate(0,0)" y="317" opacity="1">20.02.</text><text x="217.32054794521" style="color:#333333;cursor:default;font-size:13px;font-family:&quot;Statis Sans&quot;, sans-serif;fill:#333333;" text-anchor="middle" transform="translate(0,0)" y="317" opacity="1">11.04.</text><text x="305.5397260274" style="color:#333333;cursor:default;font-size:13px;font-family:&quot;Statis Sans&quot;, sans-serif;fill:#333333;" text-anchor="middle" transform="translate(0,0)" y="317" opacity="1">31.05.</text><text x="393.75890410959" style="color:#333333;cursor:default;font-size:13px;font-family:&quot;Statis Sans&quot;, sans-serif;fill:#333333;" text-anchor="middle" transform="translate(0,0)" y="317" opacity="1">20.07.</text><text x="481.97808219178" style="color:#333333;cursor:default;font-size:13px;font-family:&quot;Statis Sans&quot;, sans-serif;fill:#333333;" text-anchor="middle" transform="translate(0,0)" y="317" opacity="1">08.09.</text><text x="570.19726027397" style="color:#333333;cursor:default;font-size:13px;font-family:&quot;Statis Sans&quot;, sans-serif;fill:#333333;" text-anchor="middle" transform="translate(0,0)" y="317" opacity="1">28.10.</text><text x="658.41643835616" style="color:#333333;cursor:default;font-size:13px;font-family:&quot;Statis Sans&quot;, sans-serif;fill:#333333;" text-anchor="middle" transform="translate(0,0)" y="317" opacity="1">17.12.</text></g><g class="highcharts-axis-labels highcharts-yaxis-labels" data-z-index="7" aria-hidden="true"><text x="728.125" style="color:#333333;cursor:default;font-size:13px;font-family:&quot;Statis Sans&quot;, sans-serif;fill:#333333;" text-anchor="end" transform="translate(0,0)" y="302" opacity="1">0</text><text x="728.125" style="color:#333333;cursor:default;font-size:13px;font-family:&quot;Statis Sans&quot;, sans-serif;fill:#333333;" text-anchor="end" transform="translate(0,0)" y="275" opacity="1">500</text><text x="728.125" style="color:#333333;cursor:default;font-size:13px;font-family:&quot;Statis Sans&quot;, sans-serif;fill:#333333;" text-anchor="end" transform="translate(0,0)" y="248" opacity="1">1000</text><text x="728.125" style="color:#333333;cursor:default;font-size:13px;font-family:&quot;Statis Sans&quot;, sans-serif;fill:#333333;" text-anchor="end" transform="translate(0,0)" y="222" opacity="1">1500</text><text x="728.125" style="color:#333333;cursor:default;font-size:13px;font-family:&quot;Statis Sans&quot;, sans-serif;fill:#333333;" text-anchor="end" transform="translate(0,0)" y="195" opacity="1">2000</text><text x="728.125" style="color:#333333;cursor:default;font-size:13px;font-family:&quot;Statis Sans&quot;, sans-serif;fill:#333333;" text-anchor="end" transform="translate(0,0)" y="168" opacity="1">2500</text><text x="728.125" style="color:#333333;cursor:default;font-size:13px;font-family:&quot;Statis Sans&quot;, sans-serif;fill:#333333;" text-anchor="end" transform="translate(0,0)" y="142" opacity="1">3000</text><text x="728.125" style="color:#333333;cursor:default;font-size:13px;font-family:&quot;Statis Sans&quot;, sans-serif;fill:#333333;" text-anchor="end" transform="translate(0,0)" y="115" opacity="1">3500</text><text x="728.125" style="color:#333333;cursor:default;font-size:13px;font-family:&quot;Statis Sans&quot;, sans-serif;fill:#333333;" text-anchor="end" transform="translate(0,0)" y="89" opacity="1">4000</text></g><g class="highcharts-control-points" data-z-index="99" clip-path="url(#highcharts-g75y1p5-5863-)" aria-hidden="true"></g></svg>